<?xml version="1.0" encoding="UTF-8"?>
<svg version="1.1" xmlns="http://www.w3.org/2000/svg" width="846" height="94">
<path d="M0 0 C279.18 0 558.36 0 846 0 C846 31.02 846 62.04 846 94 C566.82 94 287.64 94 0 94 C0 62.98 0 31.96 0 0 Z " fill="#010001" transform="translate(0,0)"/>
<path d="M0 0 C30.32803227 -0.08032734 30.32803227 -0.08032734 45.28533936 -0.10050774 C53.38165628 -0.11159976 61.47793209 -0.125692 69.57421875 -0.15087891 C75.98335462 -0.17080772 82.3924595 -0.18371523 88.80162549 -0.18817699 C92.19551508 -0.19078524 95.589316 -0.19691916 98.98317719 -0.21146011 C102.77106539 -0.22592505 106.55876842 -0.22798002 110.34667969 -0.22705078 C112.03629318 -0.23783661 112.03629318 -0.23783661 113.76004028 -0.24884033 C114.79206573 -0.246091 115.82409119 -0.24334167 116.88739014 -0.24050903 C118.23136431 -0.24327441 118.23136431 -0.24327441 119.60248947 -0.24609566 C122.19900399 0.02042703 123.80591372 0.60274285 126 2 C127.61240145 5.22480291 127.46625262 8.50310537 127 12 C126.13983077 14.16606252 125.13577074 16.12289233 123.97265625 18.140625 C122.95849296 20.07934678 122.44856596 21.86577037 122 24 C121.34 24 120.68 24 120 24 C120.061875 24.721875 120.12375 25.44375 120.1875 26.1875 C119.96252189 29.5621716 118.80571505 31.18308452 117 34 C116.30420546 36.19130534 116.30420546 36.19130534 116 38 C115.34 38 114.68 38 114 38 C114 39.32 114 40.64 114 42 C113.34 42 112.68 42 112 42 C112.061875 42.721875 112.12375 43.44375 112.1875 44.1875 C111.96252189 47.5621716 110.80571505 49.18308452 109 52 C108.30420546 54.19130534 108.30420546 54.19130534 108 56 C107.34 56 106.68 56 106 56 C106 57.32 106 58.64 106 60 C105.34 60 104.68 60 104 60 C104 62.64 104 65.28 104 68 C104.99 67.34 105.98 66.68 107 66 C109.6875 65.875 109.6875 65.875 112 66 C112 65.34 112 64.68 112 64 C114.0625 62.625 114.0625 62.625 117 61 C121.97978119 58.18026458 126.85201529 55.24743659 131.6875 52.1875 C137.84777751 48.30679006 144.0754584 44.56332605 150.36206055 40.89135742 C155.93325572 37.63554616 161.47134084 34.32747792 167 31 C173.42101212 27.13834294 179.85390118 23.29850276 186.3125 19.5 C186.98732422 19.10296875 187.66214844 18.7059375 188.35742188 18.296875 C189.6232852 17.55389592 190.89031981 16.8129077 192.15869141 16.07421875 C193.42996009 15.33256107 194.69766325 14.58476972 195.96240234 13.83203125 C200.77809759 11 200.77809759 11 203 11 C202.6558241 13.74969041 202.26785768 14.77658972 200.10498047 16.58056641 C199.28400879 17.08249512 198.46303711 17.58442383 197.6171875 18.1015625 C196.70517578 18.66875 195.79316406 19.2359375 194.85351562 19.8203125 C193.87060547 20.41585938 192.88769531 21.01140625 191.875 21.625 C189.84034069 22.88672339 187.80648737 24.14974742 185.7734375 25.4140625 C184.77795898 26.02926758 183.78248047 26.64447266 182.75683594 27.27832031 C179.2862412 29.4457516 175.88569133 31.70312063 172.5 34 C166.18052625 38.2532148 159.78921092 42.39122301 153.375 46.5 C152.42560547 47.11230469 151.47621094 47.72460938 150.49804688 48.35546875 C149.59892578 48.92910156 148.69980469 49.50273438 147.7734375 50.09375 C146.97341309 50.60615234 146.17338867 51.11855469 145.34912109 51.64648438 C142.96155614 53.02215057 140.57991057 54.04104455 138 55 C138 55.66 138 56.32 138 57 C136.68 57.33 135.36 57.66 134 58 C134 58.66 134 59.32 134 60 C131 62 131 62 128 62 C128 62.66 128 63.32 128 64 C126.68 64 125.36 64 124 64 C124 64.66 124 65.32 124 66 C123.34 66 122.68 66 122 66 C122 66.66 122 67.32 122 68 C121.195625 68.28875 120.39125 68.5775 119.5625 68.875 C116.8673532 69.73262568 116.8673532 69.73262568 116 72 C114.68 72 113.36 72 112 72 C112 72.66 112 73.32 112 74 C110.68 74 109.36 74 108 74 C108 74.66 108 75.32 108 76 C106.68 76 105.36 76 104 76 C104 76.66 104 77.32 104 78 C102.02 78 100.04 78 98 78 C98 78.66 98 79.32 98 80 C92.25 79.25 92.25 79.25 90 77 C88.01042168 66.67513567 93.44919039 56.91478247 98 48 C98.66 48 99.32 48 100 48 C100.2165625 46.576875 100.2165625 46.576875 100.4375 45.125 C101 42 101 42 102 40 C102.66 40 103.32 40 104 40 C104 38.68 104 37.36 104 36 C104.66 36 105.32 36 106 36 C105.95875 35.236875 105.9175 34.47375 105.875 33.6875 C106 31 106 31 108 28 C108.66 28 109.32 28 110 28 C109.505 26.515 109.505 26.515 109 25 C105.88794071 26.98512949 105.88794071 26.98512949 104.25 30.1875 C104.1675 30.785625 104.085 31.38375 104 32 C103.34 32 102.68 32 102 32 C102 32.66 102 33.32 102 34 C101.34 34 100.68 34 100 34 C100 34.66 100 35.32 100 36 C99.34 36 98.68 36 98 36 C98 36.66 98 37.32 98 38 C97.34 38 96.68 38 96 38 C95.855625 38.61875 95.71125 39.2375 95.5625 39.875 C95 42 95 42 94 44 C93.34 44 92.68 44 92 44 C92 44.66 92 45.32 92 46 C91.34 46 90.68 46 90 46 C90 46.66 90 47.32 90 48 C89.34 48 88.68 48 88 48 C88 48.66 88 49.32 88 50 C87.34 50 86.68 50 86 50 C86 50.66 86 51.32 86 52 C85.34 52 84.68 52 84 52 C83.71125 52.598125 83.4225 53.19625 83.125 53.8125 C82 56 82 56 80 59 C79.34 59 78.68 59 78 59 C77.71125 59.598125 77.4225 60.19625 77.125 60.8125 C76 63 76 63 74 66 C73.34 66 72.68 66 72 66 C72 66.66 72 67.32 72 68 C71.34 68 70.68 68 70 68 C70 68.66 70 69.32 70 70 C69.34 70 68.68 70 68 70 C68 70.66 68 71.32 68 72 C67.34 72 66.68 72 66 72 C65.01 73.98 65.01 73.98 64 76 C63.34 76 62.68 76 62 76 C62 76.66 62 77.32 62 78 C61.34 78 60.68 78 60 78 C60 78.66 60 79.32 60 80 C55.90992608 83.12009592 51.70194663 85.6848247 46.625 86.625 C43.14771008 85.79707383 41.90717886 85.05148617 40 82 C39.58364199 70.34197583 48.19435447 59.84260338 54.68017578 50.84375 C56.12578157 48.82428738 57.54670179 46.78883597 58.96484375 44.75 C64.40019662 36.95204832 69.90216134 29.29947157 76 22 C75.38125 22.66 74.7625 23.32 74.125 24 C72 26 72 26 70 26 C69.67708984 26.80050781 69.67708984 26.80050781 69.34765625 27.6171875 C67.50423156 30.87657608 64.99986627 33.4281177 62.4375 36.125 C58.81366093 39.76403407 58.81366093 39.76403407 56 44 C55.34 44 54.68 44 54 44 C54 44.66 54 45.32 54 46 C53.34 46 52.68 46 52 46 C52 46.66 52 47.32 52 48 C51.34 48 50.68 48 50 48 C50 48.66 50 49.32 50 50 C49.34 50 48.68 50 48 50 C47.7525 50.53625 47.505 51.0725 47.25 51.625 C45.69347463 54.5823982 43.96564327 57.29724051 42 60 C41.34 60 40.68 60 40 60 C40 60.66 40 61.32 40 62 C38.3203125 63.62109375 38.3203125 63.62109375 36.125 65.4375 C33.53806278 67.58400884 31.88815626 69.16776562 30 72 C29.34 72 28.68 72 28 72 C28 72.66 28 73.32 28 74 C27.34 74 26.68 74 26 74 C26 74.66 26 75.32 26 76 C25.34 76 24.68 76 24 76 C23.7525 76.5775 23.505 77.155 23.25 77.75 C21.81700012 80.32939979 20.21575324 82.06121592 18 84 C17.34 84 16.68 84 16 84 C15.855625 84.61875 15.71125 85.2375 15.5625 85.875 C14.90265433 88.3677503 14.55319767 89.63824305 12.36328125 91.0703125 C11.68652344 91.41835937 11.00976562 91.76640625 10.3125 92.125 C9.64863281 92.47820312 8.98476562 92.83140625 8.30078125 93.1953125 C6 94 6 94 0 94 C0 62.98 0 31.96 0 0 Z " fill="#5341EA" transform="translate(0,0)"/>
<path d="M0 0 C27.39 0 54.78 0 83 0 C79.70366776 3.29633224 76.16231026 6.02899211 72.47265625 8.8671875 C69.89287562 10.94845006 69.89287562 10.94845006 67.87109375 13.7578125 C67.25363281 14.49773438 66.63617188 15.23765625 66 16 C65.01 16 64.02 16 63 16 C62.75121094 16.56589844 62.50242188 17.13179687 62.24609375 17.71484375 C57.9110023 25.66477635 49.9526534 32.08237258 43.58203125 38.390625 C39.39741113 42.61956031 35.51192313 47.04339359 31.875 51.75 C30 54 30 54 27.64453125 55.8125 C24.07040794 58.76893878 21.55383363 62.26911497 18.76953125 65.953125 C18.18558594 66.62859375 17.60164063 67.3040625 17 68 C16.34 68 15.68 68 15 68 C14.773125 68.556875 14.54625 69.11375 14.3125 69.6875 C12.98431409 72.02763708 11.44268579 73.52867494 9.50390625 75.36328125 C6.80085075 78.30504814 4.6761723 81.67787386 2.453125 84.98828125 C1.97359375 85.65214844 1.4940625 86.31601563 1 87 C0.67 87 0.34 87 0 87 C0 58.29 0 29.58 0 0 Z " fill="#000000" transform="translate(0,0)"/>
<path d="M0 0 C3.96 0 7.92 0 12 0 C12.47626831 1.43666016 12.47626831 1.43666016 12.9621582 2.90234375 C14.15151224 6.48863883 15.34291719 10.07424988 16.53491211 13.65966797 C17.04848434 15.20538331 17.56151568 16.75127848 18.07397461 18.29736328 C18.81478671 20.53206229 19.55760443 22.76608645 20.30078125 25 C20.52590897 25.68054443 20.75103668 26.36108887 20.98298645 27.06225586 C22.5486362 31.75974263 24.25855896 36.35615722 26 41 C30.62 27.47 35.24 13.94 40 0 C43.63 0 47.26 0 51 0 C54.49060832 8.38885124 57.36859728 16.93276456 60.1875 25.5625 C61.07339334 28.27327674 61.96324126 30.98270874 62.85546875 33.69140625 C63.24371826 34.87935791 63.63196777 36.06730957 64.03198242 37.29125977 C64.7403192 39.88295445 64.7403192 39.88295445 66 41 C72.93 20.705 72.93 20.705 80 0 C83.63 0 87.26 0 91 0 C87.78719392 11.21841342 84.32248434 22.32715413 80.60571289 33.38867188 C79.79933602 35.78918805 78.99798736 38.19134222 78.19726562 40.59375 C77.67997369 42.14072073 77.1624062 43.68759935 76.64453125 45.234375 C76.28981499 46.29685455 76.28981499 46.29685455 75.92793274 47.38079834 C74.7181222 50.97576653 73.41044052 54.47389871 72 58 C68.04 58 64.08 58 60 58 C54.88145158 44.81586014 50.40602579 31.43686397 46 18 C42.25685221 26.58774344 39.13405921 35.27799049 36.25 44.1875 C35.46619627 46.59852086 34.67988223 49.00872761 33.890625 51.41796875 C33.38063965 52.99227661 33.38063965 52.99227661 32.86035156 54.59838867 C32 57 32 57 31 58 C28.98035801 58.07244053 26.95832876 58.08377188 24.9375 58.0625 C23.83277344 58.05347656 22.72804688 58.04445312 21.58984375 58.03515625 C20.73519531 58.02355469 19.88054688 58.01195312 19 58 C7.14157687 23.71375319 7.14157687 23.71375319 2.75 9.875 C2.46310303 8.97120605 2.17620605 8.06741211 1.88061523 7.13623047 C0 1.14612269 0 1.14612269 0 0 Z " fill="#F3F3F4" transform="translate(503,18)"/>
<path d="M0 0 C10 0 10 0 12.078125 1.58203125 C12.46484375 2.31808594 12.8515625 3.05414062 13.25 3.8125 C13.70858398 4.63395508 14.16716797 5.45541016 14.63964844 6.30175781 C15.08856445 7.19217773 15.53748047 8.08259766 16 9 C17.00346781 10.82908096 18.00870465 12.65719241 19.015625 14.484375 C19.50869141 15.40669922 20.00175781 16.32902344 20.50976562 17.27929688 C22.75457929 21.37762642 25.23981551 25.31060643 27.75 29.25 C28.5786381 30.56738573 29.40681688 31.88506058 30.234375 33.203125 C30.81703125 34.12609375 31.3996875 35.0490625 32 36 C35.11209083 32.29587623 37.65954769 28.41631716 40.07421875 24.23828125 C40.44352005 23.60641403 40.81282135 22.97454681 41.1933136 22.3235321 C42.36180844 20.32202265 43.52464824 18.31729212 44.6875 16.3125 C45.4794635 14.95487144 46.27177787 13.59744749 47.06445312 12.24023438 C50.66453294 6.1920639 50.66453294 6.1920639 54 0 C57.3 0 60.6 0 64 0 C64 19.14 64 38.28 64 58 C60.37 58 56.74 58 53 58 C52.505 40.675 52.505 40.675 52 23 C46.67059793 32.29076558 46.67059793 32.29076558 41.4609375 41.6484375 C40.76615936 42.89092396 40.07087638 44.1331283 39.375 45.375 C39.03210938 46.02726562 38.68921875 46.67953125 38.3359375 47.3515625 C37.2734375 49.2109375 37.2734375 49.2109375 35 52 C31.7265625 52.4140625 31.7265625 52.4140625 29 52 C28.40832031 50.92621094 27.81664062 49.85242188 27.20703125 48.74609375 C26.40907527 47.30977298 25.61088566 45.87358198 24.8125 44.4375 C24.42513672 43.73302734 24.03777344 43.02855469 23.63867188 42.30273438 C21.39118854 38.27212376 19.02436944 34.4866216 16.2175293 30.82055664 C14.57105651 28.35860606 13.32454319 25.64908638 12 23 C11.67 34.55 11.34 46.1 11 58 C7.37 58 3.74 58 0 58 C0 38.86 0 19.72 0 0 Z " fill="#F2F2F2" transform="translate(250,18)"/>
<path d="M0 0 C0.99 0.33 1.98 0.66 3 1 C4.61240145 4.22480291 4.46625262 7.50310537 4 11 C3.13983077 13.16606252 2.13577074 15.12289233 0.97265625 17.140625 C-0.04150704 19.07934678 -0.55143404 20.86577037 -1 23 C-1.66 23 -2.32 23 -3 23 C-2.938125 23.721875 -2.87625 24.44375 -2.8125 25.1875 C-3.03747811 28.5621716 -4.19428495 30.18308452 -6 33 C-6.69579454 35.19130534 -6.69579454 35.19130534 -7 37 C-7.66 37 -8.32 37 -9 37 C-9 38.32 -9 39.64 -9 41 C-9.66 41 -10.32 41 -11 41 C-10.938125 41.721875 -10.87625 42.44375 -10.8125 43.1875 C-11.03747811 46.5621716 -12.19428495 48.18308452 -14 51 C-14.69579454 53.19130534 -14.69579454 53.19130534 -15 55 C-15.66 55 -16.32 55 -17 55 C-17 56.32 -17 57.64 -17 59 C-17.66 59 -18.32 59 -19 59 C-19 61.64 -19 64.28 -19 67 C-17.515 66.01 -17.515 66.01 -16 65 C-13.3125 64.875 -13.3125 64.875 -11 65 C-11 64.34 -11 63.68 -11 63 C-8.9375 61.625 -8.9375 61.625 -6 60 C-1.02021881 57.18026458 3.85201529 54.24743659 8.6875 51.1875 C14.84777751 47.30679006 21.0754584 43.56332605 27.36206055 39.89135742 C32.93325572 36.63554616 38.47134084 33.32747792 44 30 C50.42101212 26.13834294 56.85390118 22.29850276 63.3125 18.5 C63.98732422 18.10296875 64.66214844 17.7059375 65.35742188 17.296875 C66.6232852 16.55389592 67.89031981 15.8129077 69.15869141 15.07421875 C70.42996009 14.33256107 71.69766325 13.58476972 72.96240234 12.83203125 C77.77809759 10 77.77809759 10 80 10 C79.6558241 12.74969041 79.26785768 13.77658972 77.10498047 15.58056641 C76.28400879 16.08249512 75.46303711 16.58442383 74.6171875 17.1015625 C73.70517578 17.66875 72.79316406 18.2359375 71.85351562 18.8203125 C70.87060547 19.41585938 69.88769531 20.01140625 68.875 20.625 C66.84034069 21.88672339 64.80648737 23.14974742 62.7734375 24.4140625 C61.77795898 25.02926758 60.78248047 25.64447266 59.75683594 26.27832031 C56.2862412 28.4457516 52.88569133 30.70312063 49.5 33 C43.18052625 37.2532148 36.78921092 41.39122301 30.375 45.5 C28.9509082 46.41845703 28.9509082 46.41845703 27.49804688 47.35546875 C26.59892578 47.92910156 25.69980469 48.50273438 24.7734375 49.09375 C23.97341309 49.60615234 23.17338867 50.11855469 22.34912109 50.64648438 C19.96155614 52.02215057 17.57991057 53.04104455 15 54 C15 54.66 15 55.32 15 56 C13.02 56.495 13.02 56.495 11 57 C11 57.66 11 58.32 11 59 C8 61 8 61 5 61 C5 61.66 5 62.32 5 63 C3.68 63 2.36 63 1 63 C1 63.66 1 64.32 1 65 C0.34 65 -0.32 65 -1 65 C-1 65.66 -1 66.32 -1 67 C-1.804375 67.28875 -2.60875 67.5775 -3.4375 67.875 C-6.1326468 68.73262568 -6.1326468 68.73262568 -7 71 C-8.32 71 -9.64 71 -11 71 C-11 71.66 -11 72.32 -11 73 C-12.32 73 -13.64 73 -15 73 C-15 73.66 -15 74.32 -15 75 C-16.32 75 -17.64 75 -19 75 C-19 75.66 -19 76.32 -19 77 C-20.98 77 -22.96 77 -25 77 C-25 77.66 -25 78.32 -25 79 C-30.75 78.25 -30.75 78.25 -33 76 C-34.98957832 65.67513567 -29.55080961 55.91478247 -25 47 C-24.34 47 -23.68 47 -23 47 C-22.855625 46.05125 -22.71125 45.1025 -22.5625 44.125 C-22 41 -22 41 -21 39 C-20.34 39 -19.68 39 -19 39 C-19 37.68 -19 36.36 -19 35 C-18.34 35 -17.68 35 -17 35 C-17.04125 34.236875 -17.0825 33.47375 -17.125 32.6875 C-17 30 -17 30 -15 27 C-14.34 27 -13.68 27 -13 27 C-13.33 26.01 -13.66 25.02 -14 24 C-17.11205929 25.98512949 -17.11205929 25.98512949 -18.75 29.1875 C-18.8325 29.785625 -18.915 30.38375 -19 31 C-19.66 31 -20.32 31 -21 31 C-21 31.66 -21 32.32 -21 33 C-21.66 33 -22.32 33 -23 33 C-23 33.66 -23 34.32 -23 35 C-23.66 35 -24.32 35 -25 35 C-25 35.66 -25 36.32 -25 37 C-25.66 37 -26.32 37 -27 37 C-27 37.66 -27 38.32 -27 39 C-28.485 39.495 -28.485 39.495 -30 40 C-30.99 38.68 -31.98 37.36 -33 36 C-32.34 35.34 -31.68 34.68 -31 34 C-31.66 33.34 -32.32 32.68 -33 32 C-32.01 31.34 -31.02 30.68 -30 30 C-30.20625 29.484375 -30.4125 28.96875 -30.625 28.4375 C-31.15887026 24.96734329 -30.07676761 22.29364209 -29 19 C-28.34 19 -27.68 19 -27 19 C-27 18.34 -27 17.68 -27 17 C-26.34 17 -25.68 17 -25 17 C-25 16.34 -25 15.68 -25 15 C-24.34 15 -23.68 15 -23 15 C-22.34 13.68 -21.68 12.36 -21 11 C-20.34 11 -19.68 11 -19 11 C-19 10.34 -19 9.68 -19 9 C-18.34 9 -17.68 9 -17 9 C-17 8.34 -17 7.68 -17 7 C-16.34 7 -15.68 7 -15 7 C-15 6.34 -15 5.68 -15 5 C-14.34 5 -13.68 5 -13 5 C-13 4.34 -13 3.68 -13 3 C-11.68 3 -10.36 3 -9 3 C-9 2.34 -9 1.68 -9 1 C-5.54348293 -0.63224417 -3.63333393 -1.33222244 0 0 Z " fill="#E803B7" transform="translate(123,1)"/>
<path d="M0 0 C3.96 0 7.92 0 12 0 C13.07314453 2.41892578 13.07314453 2.41892578 14.16796875 4.88671875 C15.17443849 7.15366389 16.18095247 9.42058939 17.1875 11.6875 C17.71762695 12.88238037 18.24775391 14.07726074 18.79394531 15.30834961 C21.7391052 21.94156176 24.70183206 28.56636599 27.69140625 35.1796875 C28.29212349 36.51080104 28.89279143 37.84193683 29.4934082 39.1730957 C30.36931395 41.11425212 31.24649059 43.05477974 32.1277771 44.99349976 C32.94780783 46.79757905 33.76308089 48.60381863 34.578125 50.41015625 C35.04637695 51.44277588 35.51462891 52.47539551 35.99707031 53.53930664 C37 56 37 56 37 58 C33.04 58 29.08 58 25 58 C22.525 52.06 22.525 52.06 20 46 C10.43 46 0.86 46 -9 46 C-10.65 49.96 -12.3 53.92 -14 58 C-17.96 58 -21.92 58 -26 58 C-18.60857533 38.1355462 -9.56748984 18.90162627 0 0 Z " fill="#F3F3F3" transform="translate(364,18)"/>
<path d="M0 0 C0.97710938 -0.04898437 1.95421875 -0.09796875 2.9609375 -0.1484375 C5.625 0.375 5.625 0.375 7.05395508 2.40209961 C8.97431964 6.03602025 10.71960153 9.7264178 12.42578125 13.46484375 C12.78463913 14.24581924 13.14349701 15.02679474 13.51322937 15.83143616 C14.27184513 17.48407418 15.02904311 19.13736365 15.78491211 20.79125977 C16.92016162 23.27457298 18.06027223 25.75560654 19.20117188 28.23632812 C31.625 55.30389268 31.625 55.30389268 31.625 58.375 C27.665 58.375 23.705 58.375 19.625 58.375 C17.15 52.435 17.15 52.435 14.625 46.375 C5.055 46.045 -4.515 45.715 -14.375 45.375 C-15.035 47.355 -15.695 49.335 -16.375 51.375 C-17.32387818 53.73413748 -18.35060606 56.04683195 -19.375 58.375 C-23.335 58.375 -27.295 58.375 -31.375 58.375 C-29.90194218 53.64269288 -28.00910253 49.18343631 -25.92578125 44.6953125 C-25.59007614 43.96488739 -25.25437103 43.23446228 -24.90849304 42.48190308 C-23.83776182 40.15323806 -22.76292571 37.82650025 -21.6875 35.5 C-20.28579453 32.46183978 -18.88624509 29.4226961 -17.48828125 26.3828125 C-16.97396042 25.26595062 -16.97396042 25.26595062 -16.44924927 24.12652588 C-13.72776819 18.19589902 -11.0988828 12.22756072 -8.52888489 6.22976685 C-6.20600414 0.84529136 -5.88345309 0.20074774 0 0 Z " fill="#F3F3F4" transform="translate(640.375,17.625)"/>
<path d="M0 0 C3.63 0 7.26 0 11 0 C11 7.92 11 15.84 11 24 C20.9 24 30.8 24 41 24 C41 16.08 41 8.16 41 0 C44.63 0 48.26 0 52 0 C52 19.14 52 38.28 52 58 C48.37 58 44.74 58 41 58 C41 49.75 41 41.5 41 33 C31.1 33 21.2 33 11 33 C11 41.25 11 49.5 11 58 C7.37 58 3.74 58 0 58 C0 38.86 0 19.72 0 0 Z " fill="#F8F8F8" transform="translate(425,18)"/>
<path d="M0 0 C3.7955717 -0.54704859 7.2184737 -0.72054117 11 0 C13.89092115 2.42995423 15.25654435 5.69461072 17 9 C18.75669142 11.8348053 20.57214896 14.63187789 22.375 17.4375 C27 24.67591647 27 24.67591647 27 27 C27.66 27 28.32 27 29 27 C29.27255615 26.27385498 29.5451123 25.54770996 29.82592773 24.79956055 C30.96115173 22.09263322 32.2615414 19.71236842 33.78515625 17.20703125 C34.31560547 16.32982422 34.84605469 15.45261719 35.39257812 14.54882812 C35.94365234 13.64583984 36.49472656 12.74285156 37.0625 11.8125 C38.15810746 10.00684728 39.25318611 8.20087356 40.34765625 6.39453125 C40.83242432 5.59893799 41.31719238 4.80334473 41.81665039 3.98364258 C43.01876766 2.02426963 43.01876766 2.02426963 44 0 C47.63 0 51.26 0 55 0 C53.42298841 6.10586541 50.09525813 10.98888934 46.75 16.25 C45.05337925 18.94509181 43.35901972 21.64119677 41.67822266 24.34619141 C40.57612719 26.08895803 39.44095955 27.81132699 38.27099609 29.50927734 C34.11761816 35.76472256 33.10406486 40.67208908 33.125 48.125 C33.104375 49.08148438 33.08375 50.03796875 33.0625 51.0234375 C33.01599702 53.34858667 33.00428289 55.67438979 33 58 C29.37 58 25.74 58 22 58 C22.06703125 56.71609375 22.1340625 55.4321875 22.203125 54.109375 C22.49750876 39.74892465 18.65035975 30.88533636 10.53613281 19.22265625 C8.34463306 16.05173862 6.3266623 12.78508777 4.3125 9.5 C3.68988281 8.5203125 3.06726563 7.540625 2.42578125 6.53125 C1.16102776 4.28587942 0.44543692 2.51820338 0 0 Z " fill="#F5F5F7" transform="translate(685,18)"/>
<path d="M0 0 C0.99 0.99 1.98 1.98 3 3 C1.35 4.65 -0.3 6.3 -2 8 C-1.4121875 9.3303125 -1.4121875 9.3303125 -0.8125 10.6875 C0 14 0 14 -1.25 16.6875 C-1.8275 17.450625 -2.405 18.21375 -3 19 C-3.66 19.99 -4.32 20.98 -5 22 C-5.66 22 -6.32 22 -7 22 C-7 22.66 -7 23.32 -7 24 C-7.66 24 -8.32 24 -9 24 C-9 24.66 -9 25.32 -9 26 C-9.66 26 -10.32 26 -11 26 C-11 26.66 -11 27.32 -11 28 C-11.66 28 -12.32 28 -13 28 C-13.2475 28.53625 -13.495 29.0725 -13.75 29.625 C-15.30652537 32.5823982 -17.03435673 35.29724051 -19 38 C-19.66 38 -20.32 38 -21 38 C-21 38.66 -21 39.32 -21 40 C-22.6796875 41.62109375 -22.6796875 41.62109375 -24.875 43.4375 C-27.46193722 45.58400884 -29.11184374 47.16776562 -31 50 C-31.66 50 -32.32 50 -33 50 C-33 50.66 -33 51.32 -33 52 C-33.66 52 -34.32 52 -35 52 C-35 52.66 -35 53.32 -35 54 C-35.66 54 -36.32 54 -37 54 C-37.2475 54.5775 -37.495 55.155 -37.75 55.75 C-39.18299988 58.32939979 -40.78424676 60.06121592 -43 62 C-43.66 62 -44.32 62 -45 62 C-45.2165625 62.928125 -45.2165625 62.928125 -45.4375 63.875 C-46.09734567 66.3677503 -46.44680233 67.63824305 -48.63671875 69.0703125 C-52.94100994 71.28394797 -56.03538135 72.49646186 -61 72 C-61.8076716 66.69244376 -60.77142055 64.16855844 -57.6875 59.75 C-55.63706932 56.98170365 -53.61670095 54.25754592 -51 52 C-50.34 52 -49.68 52 -49 52 C-48.690625 51.38125 -48.38125 50.7625 -48.0625 50.125 C-47.375 48.75 -46.6875 47.375 -46 46 C-45.34 46 -44.68 46 -44 46 C-43.7628125 45.44828125 -43.525625 44.8965625 -43.28125 44.328125 C-41.68754857 41.43225289 -39.71082727 39.20487963 -37.5 36.75 C-36.7059375 35.85796875 -35.911875 34.9659375 -35.09375 34.046875 C-33 32 -33 32 -31 32 C-30.73960938 31.41089844 -30.47921875 30.82179688 -30.2109375 30.21484375 C-28.92577526 27.86424056 -27.56513183 26.39672944 -25.625 24.5625 C-23.5013615 22.51345211 -21.68776294 20.59592851 -19.875 18.25 C-18 16 -18 16 -15.80859375 14.77734375 C-12.08262841 12.41946582 -9.24884002 9.46257451 -6.1875 6.3125 C-5.59001953 5.70599609 -4.99253906 5.09949219 -4.37695312 4.47460938 C-2.91335815 2.98759688 -1.45603898 1.49441189 0 0 Z " fill="#01DAE8" transform="translate(61,22)"/>
<path d="M0 0 C-0.3441759 2.74969041 -0.73214232 3.77658972 -2.89501953 5.58056641 C-4.12647705 6.33345947 -4.12647705 6.33345947 -5.3828125 7.1015625 C-6.29482422 7.66875 -7.20683594 8.2359375 -8.14648438 8.8203125 C-9.12939453 9.41585938 -10.11230469 10.01140625 -11.125 10.625 C-13.15965931 11.88672339 -15.19351263 13.14974742 -17.2265625 14.4140625 C-18.22204102 15.02926758 -19.21751953 15.64447266 -20.24316406 16.27832031 C-23.7137588 18.4457516 -27.11430867 20.70312063 -30.5 23 C-36.81947375 27.2532148 -43.21078908 31.39122301 -49.625 35.5 C-51.0490918 36.41845703 -51.0490918 36.41845703 -52.50195312 37.35546875 C-53.40107422 37.92910156 -54.30019531 38.50273438 -55.2265625 39.09375 C-56.02658691 39.60615234 -56.82661133 40.11855469 -57.65087891 40.64648438 C-60.03844386 42.02215057 -62.42008943 43.04104455 -65 44 C-65 44.66 -65 45.32 -65 46 C-66.98 46.495 -66.98 46.495 -69 47 C-69 47.66 -69 48.32 -69 49 C-72 51 -72 51 -75 51 C-75 51.66 -75 52.32 -75 53 C-76.32 53 -77.64 53 -79 53 C-79 53.66 -79 54.32 -79 55 C-79.66 55 -80.32 55 -81 55 C-81 55.66 -81 56.32 -81 57 C-81.804375 57.28875 -82.60875 57.5775 -83.4375 57.875 C-86.1326468 58.73262568 -86.1326468 58.73262568 -87 61 C-88.32 61 -89.64 61 -91 61 C-91 61.66 -91 62.32 -91 63 C-92.32 63 -93.64 63 -95 63 C-95 63.66 -95 64.32 -95 65 C-95.66 64.67 -96.32 64.34 -97 64 C-97.66 64 -98.32 64 -99 64 C-101 62 -101 62 -101.1953125 59.8359375 C-101.17210938 59.02382812 -101.14890625 58.21171875 -101.125 57.375 C-101.09792969 56.14910156 -101.09792969 56.14910156 -101.0703125 54.8984375 C-101.04710938 54.27195313 -101.02390625 53.64546875 -101 53 C-100.34 53 -99.68 53 -99 53 C-99 54.32 -99 55.64 -99 57 C-98.01 56.34 -97.02 55.68 -96 55 C-93.3125 54.875 -93.3125 54.875 -91 55 C-91 54.34 -91 53.68 -91 53 C-88.9375 51.625 -88.9375 51.625 -86 50 C-81.02021881 47.18026458 -76.14798471 44.24743659 -71.3125 41.1875 C-65.15222249 37.30679006 -58.9245416 33.56332605 -52.63793945 29.89135742 C-47.06674428 26.63554616 -41.52865916 23.32747792 -36 20 C-29.57898788 16.13834294 -23.14609882 12.29850276 -16.6875 8.5 C-16.01267578 8.10296875 -15.33785156 7.7059375 -14.64257812 7.296875 C-13.3767148 6.55389592 -12.10968019 5.8129077 -10.84130859 5.07421875 C-9.57003991 4.33256107 -8.30233675 3.58476972 -7.03759766 2.83203125 C-2.22190241 0 -2.22190241 0 0 0 Z " fill="#8D088B" transform="translate(203,11)"/>
<path d="M0 0 C0.66 0 1.32 0 2 0 C1.7215625 1.36125 1.7215625 1.36125 1.4375 2.75 C1.02505465 5.81387973 1.25928436 7.1297269 2 10 C1.67449498 11.66821323 1.34153937 13.33499557 1 15 C1.495 16.485 1.495 16.485 2 18 C2.66 18.33 3.32 18.66 4 19 C3.34 19.99 2.68 20.98 2 22 C1.34 22 0.68 22 0 22 C0 22.66 0 23.32 0 24 C-0.66 24 -1.32 24 -2 24 C-2 24.66 -2 25.32 -2 26 C-2.66 26 -3.32 26 -4 26 C-4 26.66 -4 27.32 -4 28 C-4.66 28 -5.32 28 -6 28 C-6 28.66 -6 29.32 -6 30 C-6.66 30 -7.32 30 -8 30 C-8.433125 30.8971875 -8.433125 30.8971875 -8.875 31.8125 C-10 34 -10 34 -12 37 C-12.66 37 -13.32 37 -14 37 C-14.28875 37.598125 -14.5775 38.19625 -14.875 38.8125 C-16 41 -16 41 -18 44 C-18.66 44 -19.32 44 -20 44 C-20 44.66 -20 45.32 -20 46 C-20.66 46 -21.32 46 -22 46 C-22 46.66 -22 47.32 -22 48 C-22.66 48 -23.32 48 -24 48 C-24 48.66 -24 49.32 -24 50 C-24.66 50 -25.32 50 -26 50 C-26.66 51.32 -27.32 52.64 -28 54 C-28.66 54 -29.32 54 -30 54 C-30 54.66 -30 55.32 -30 56 C-31.98 56.495 -31.98 56.495 -34 57 C-34 52.06041431 -31.32458662 47.6016355 -28 44 C-27.01 44 -26.02 44 -25 44 C-25 42.68 -25 41.36 -25 40 C-24.01 39.505 -24.01 39.505 -23 39 C-22.38932856 37.14255793 -22.38932856 37.14255793 -22 35 C-21.814375 34.29875 -21.62875 33.5975 -21.4375 32.875 C-20.92425679 30.99628047 -20.92425679 30.99628047 -21 29 C-20.34 28.67 -19.68 28.34 -19 28 C-18.690625 27.071875 -18.38125 26.14375 -18.0625 25.1875 C-17.0458553 22.13756591 -15.97512716 20.46890894 -14 18 C-13.690625 17.29875 -13.38125 16.5975 -13.0625 15.875 C-11.74149996 13.54382346 -10.44629561 12.97851824 -8 12 C-8 11.34 -8 10.68 -8 10 C-7.34 10 -6.68 10 -6 10 C-6 9.34 -6 8.68 -6 8 C-5 7 -4 6 -3 5 C-2.484375 4.113125 -1.96875 3.22625 -1.4375 2.3125 C-0.963125 1.549375 -0.48875 0.78625 0 0 Z " fill="#8122DF" transform="translate(92,22)"/>
<path d="M0 0 C0.99 0.99 1.98 1.98 3 3 C1.35 4.65 -0.3 6.3 -2 8 C-1.4121875 9.3303125 -1.4121875 9.3303125 -0.8125 10.6875 C0 14 0 14 -1.25 16.6875 C-1.8275 17.450625 -2.405 18.21375 -3 19 C-3.66 19.99 -4.32 20.98 -5 22 C-5.66 22 -6.32 22 -7 22 C-7 22.66 -7 23.32 -7 24 C-7.66 24 -8.32 24 -9 24 C-9 24.66 -9 25.32 -9 26 C-9.66 26 -10.32 26 -11 26 C-11 26.66 -11 27.32 -11 28 C-11.66 28 -12.32 28 -13 28 C-13.2475 28.53625 -13.495 29.0725 -13.75 29.625 C-15.30652537 32.5823982 -17.03435673 35.29724051 -19 38 C-19.66 38 -20.32 38 -21 38 C-21 38.66 -21 39.32 -21 40 C-22.32 40.66 -23.64 41.32 -25 42 C-25.66 41.34 -26.32 40.68 -27 40 C-26.34 40 -25.68 40 -25 40 C-25 39.01 -25 38.02 -25 37 C-25.66 36.67 -26.32 36.34 -27 36 C-26.34 36 -25.68 36 -25 36 C-25 35.01 -25 34.02 -25 33 C-25.66 33 -26.32 33 -27 33 C-27.33 33 -27.66 33 -28 33 C-28.99 33.495 -28.99 33.495 -30 34 C-30.65213292 36.02463255 -30.65213292 36.02463255 -31 38 C-32.98 38 -34.96 38 -37 38 C-35.58226538 34.45566346 -34.32387762 33.66193881 -31 32 C-30.69835937 31.39027344 -30.39671875 30.78054687 -30.0859375 30.15234375 C-28.88654583 27.77513221 -27.55312864 26.38538144 -25.625 24.5625 C-23.5013615 22.51345211 -21.68776294 20.59592851 -19.875 18.25 C-18 16 -18 16 -15.80859375 14.77734375 C-12.08262841 12.41946582 -9.24884002 9.46257451 -6.1875 6.3125 C-5.59001953 5.70599609 -4.99253906 5.09949219 -4.37695312 4.47460938 C-2.91335815 2.98759688 -1.45603898 1.49441189 0 0 Z M-26 28 C-26.33 28.66 -26.66 29.32 -27 30 C-25.68 29.67 -24.36 29.34 -23 29 C-23.99 28.67 -24.98 28.34 -26 28 Z " fill="#00B0E7" transform="translate(61,22)"/>
<path d="M0 0 C0.66 0 1.32 0 2 0 C2.66 1.65 3.32 3.3 4 5 C3.01 5 2.02 5 1 5 C1 5.99 1 6.98 1 8 C4.04134491 6.33075929 4.04134491 6.33075929 5 4 C7.475 4.495 7.475 4.495 10 5 C8.7874262 8.72433382 7.49140021 12.37802806 6 16 C5.34 16 4.68 16 4 16 C4 17.32 4 18.64 4 20 C3.34 20 2.68 20 2 20 C2 21.32 2 22.64 2 24 C1.34 24 0.68 24 0 24 C0.12375 25.27875 0.2475 26.5575 0.375 27.875 C0.44460937 28.59429687 0.51421875 29.31359375 0.5859375 30.0546875 C0.86374749 32.22668245 0.86374749 32.22668245 3 34 C3.99 33.505 3.99 33.505 5 33 C4.67 33.99 4.34 34.98 4 36 C3.34 36 2.68 36 2 36 C2 36.66 2 37.32 2 38 C0.02 38 -1.96 38 -4 38 C-4 38.66 -4 39.32 -4 40 C-9.75 39.25 -9.75 39.25 -12 37 C-13.98957832 26.67513567 -8.55080961 16.91478247 -4 8 C-3.34 8 -2.68 8 -2 8 C-1.7834375 6.576875 -1.7834375 6.576875 -1.5625 5.125 C-1 2 -1 2 0 0 Z " fill="#AE01E5" transform="translate(102,40)"/>
<path d="M0 0 C0.66 1.32 1.32 2.64 2 4 C1.01 4 0.02 4 -1 4 C-0.67 2.68 -0.34 1.36 0 0 Z M1.125 5.9375 C2.07375 6.288125 3.0225 6.63875 4 7 C4 7.66 4 8.32 4 9 C3.34 9 2.68 9 2 9 C1.67 9.99 1.34 10.98 1 12 C0.34 12 -0.32 12 -1 12 C-1 12.99 -1 13.98 -1 15 C-0.34 15 0.32 15 1 15 C0.00919627 18.69299572 -1.18374498 21.36999379 -3.5625 24.3125 C-6.25488807 27.83149844 -6.62122604 30.81701927 -6.76171875 35.1796875 C-6.87966797 36.08074219 -6.87966797 36.08074219 -7 37 C-9.84083641 38.42041821 -11.85477278 38.31452272 -15 38 C-17.4375 36.5 -17.4375 36.5 -19 34 C-19.11554759 27.29823961 -16.7127621 21.54439141 -13 16 C-9.875 13.75 -9.875 13.75 -7 12 C-5.24927285 8.91666413 -5.24927285 8.91666413 -4 6 C-2 5 -2 5 1.125 5.9375 Z " fill="#0090E0" transform="translate(59,48)"/>
<path d="M0 0 C0 0.66 0 1.32 0 2 C0.66 2 1.32 2 2 2 C3.01532144 6.62535321 3.0485889 10.36873235 2 15 C1.01398399 16.01379111 0.0121789 17.01232906 -1 18 C-1.89945413 19.47328985 -2.75217154 20.97587124 -3.5625 22.5 C-4.95711368 25.10675454 -6.35591995 27.53387992 -8 30 C-9.98 29.34 -11.96 28.68 -14 28 C-14.1875 25.625 -14.1875 25.625 -14 23 C-13.01 22.34 -12.02 21.68 -11 21 C-11.165 20.46375 -11.33 19.9275 -11.5 19.375 C-12 17 -12 17 -11.9375 13.875 C-11.67134345 10.86760888 -11.67134345 10.86760888 -14 9 C-13.34 8.34 -12.68 7.68 -12 7 C-12.66 6.34 -13.32 5.68 -14 5 C-12.35 4.67 -10.7 4.34 -9 4 C-9 3.34 -9 2.68 -9 2 C-5.86501708 0.14223235 -3.62528568 -0.20140476 0 0 Z " fill="#6D2BE4" transform="translate(92,0)"/>
<path d="M0 0 C8.91 0 17.82 0 27 0 C26.67 0.66 26.34 1.32 26 2 C24.68 2 23.36 2 22 2 C22 2.66 22 3.32 22 4 C20.68 4 19.36 4 18 4 C18 4.66 18 5.32 18 6 C17.34 6 16.68 6 16 6 C16 6.66 16 7.32 16 8 C15.34 8 14.68 8 14 8 C14 8.66 14 9.32 14 10 C13.34 10 12.68 10 12 10 C12 10.66 12 11.32 12 12 C10.125 14.125 10.125 14.125 8 16 C7.34 16 6.68 16 6 16 C6 16.66 6 17.32 6 18 C5.34 18 4.68 18 4 18 C4 18.66 4 19.32 4 20 C3.34 20 2.68 20 2 20 C2 20.66 2 21.32 2 22 C1.34 22 0.68 22 0 22 C-0.2475 22.94875 -0.495 23.8975 -0.75 24.875 C-2 28 -2 28 -4.125 29.375 C-5.053125 29.684375 -5.053125 29.684375 -6 30 C-6 30.66 -6 31.32 -6 32 C-6.66 32 -7.32 32 -8 32 C-8 32.66 -8 33.32 -8 34 C-9.32 34.66 -10.64 35.32 -12 36 C-11.67 34.68 -11.34 33.36 -11 32 C-10.34 32 -9.68 32 -9 32 C-8.731875 31.28199219 -8.46375 30.56398438 -8.1875 29.82421875 C-6.99151863 26.97982885 -5.59642689 24.45059544 -4 21.8125 C-3.484375 20.95269531 -2.96875 20.09289062 -2.4375 19.20703125 C-1 17 -1 17 1 15 C1.46486718 11.87803664 1.46486718 11.87803664 1.625 8.375 C1.69976562 7.18648438 1.77453125 5.99796875 1.8515625 4.7734375 C1.90054688 3.85820313 1.94953125 2.94296875 2 2 C1.34 2 0.68 2 0 2 C0 1.34 0 0.68 0 0 Z " fill="#0B030F" transform="translate(92,0)"/>
<path d="M0 0 C0.66 0 1.32 0 2 0 C0.50163895 3.11198065 -1.19933758 6.0534615 -3 9 C-2.01 10.485 -2.01 10.485 -1 12 C-1.66 12 -2.32 12 -3 12 C-3 12.66 -3 13.32 -3 14 C-2.34 14.66 -1.68 15.32 -1 16 C-1.66 16 -2.32 16 -3 16 C-2.34 17.32 -1.68 18.64 -1 20 C-1.639375 20.5775 -2.27875 21.155 -2.9375 21.75 C-4.98223868 23.98062401 -5.58205199 25.07436391 -6 28 C-6.66 28 -7.32 28 -8 28 C-8 28.66 -8 29.32 -8 30 C-8.66 30 -9.32 30 -10 30 C-10 30.66 -10 31.32 -10 32 C-10.66 32 -11.32 32 -12 32 C-12 32.66 -12 33.32 -12 34 C-12.66 34 -13.32 34 -14 34 C-14 34.66 -14 35.32 -14 36 C-15.485 36.495 -15.485 36.495 -17 37 C-17.99 35.68 -18.98 34.36 -20 33 C-19.34 32.34 -18.68 31.68 -18 31 C-18.66 30.34 -19.32 29.68 -20 29 C-19.01 28.34 -18.02 27.68 -17 27 C-17.20625 26.484375 -17.4125 25.96875 -17.625 25.4375 C-18.15887026 21.96734329 -17.07676761 19.29364209 -16 16 C-15.34 16 -14.68 16 -14 16 C-14 15.34 -14 14.68 -14 14 C-13.34 14 -12.68 14 -12 14 C-12 13.34 -12 12.68 -12 12 C-11.34 12 -10.68 12 -10 12 C-9.34 10.68 -8.68 9.36 -8 8 C-7.34 8 -6.68 8 -6 8 C-6 7.34 -6 6.68 -6 6 C-5.34 6 -4.68 6 -4 6 C-4 5.34 -4 4.68 -4 4 C-3.34 4 -2.68 4 -2 4 C-2 3.34 -2 2.68 -2 2 C-1.34 2 -0.68 2 0 2 C0 1.34 0 0.68 0 0 Z " fill="#B700F4" transform="translate(110,4)"/>
<path d="M0 0 C-0.3441759 2.74969041 -0.73214232 3.77658972 -2.89501953 5.58056641 C-3.71599121 6.08249512 -4.53696289 6.58442383 -5.3828125 7.1015625 C-6.29530762 7.66907227 -7.20780273 8.23658203 -8.14794922 8.82128906 C-9.13037598 9.41651367 -10.11280273 10.01173828 -11.125 10.625 C-13.15186728 11.88148166 -15.17790729 13.13929877 -17.203125 14.3984375 C-18.19763672 15.01299805 -19.19214844 15.62755859 -20.21679688 16.26074219 C-23.82290832 18.51424551 -27.35583955 20.86386589 -30.875 23.25 C-36.14968786 26.80372166 -41.48621494 30.24666935 -46.875 33.625 C-47.57222168 34.06360352 -48.26944336 34.50220703 -48.98779297 34.95410156 C-53.87622642 38 -53.87622642 38 -55 38 C-55.5625 35.375 -55.5625 35.375 -55 32 C-53.31030273 30.56005859 -53.31030273 30.56005859 -51.05859375 29.1484375 C-50.23866943 28.62910645 -49.41874512 28.10977539 -48.57397461 27.57470703 C-47.72456299 27.05505371 -46.87515137 26.53540039 -46 26 C-45.2272876 25.52288574 -44.4545752 25.04577148 -43.65844727 24.55419922 C-41.28188439 23.10284398 -38.8933798 21.6734374 -36.5 20.25 C-35.63995361 19.73630859 -34.77990723 19.22261719 -33.89379883 18.69335938 C-26.2290254 14.12141399 -18.55354497 9.56576036 -10.84130859 5.07421875 C-9.57003991 4.33256107 -8.30233675 3.58476972 -7.03759766 2.83203125 C-2.22190241 0 -2.22190241 0 0 0 Z " fill="#DABB34" transform="translate(203,11)"/>
<path d="M0 0 C2.475 1.485 2.475 1.485 5 3 C4.01 3.495 4.01 3.495 3 4 C2.34786708 6.02463255 2.34786708 6.02463255 2 8 C2.66 8.33 3.32 8.66 4 9 C3.54337885 13.10959039 3.19432019 15.31677104 0 18 C-0.66 18.99 -1.32 19.98 -2 21 C-2.99 21.33 -3.98 21.66 -5 22 C-5 23.98 -5 25.96 -5 28 C-6.875 29.0625 -6.875 29.0625 -9 30 C-9.66 29.67 -10.32 29.34 -11 29 C-11 26 -11 26 -9.625 24.3125 C-8 23 -8 23 -6 23 C-7.9254644 20.7763932 -7.9254644 20.7763932 -11 20 C-11.33 20.33 -11.66 20.66 -12 21 C-12.66 21.33 -13.32 21.66 -14 22 C-14.2475 22.78375 -14.495 23.5675 -14.75 24.375 C-16.4257327 27.89403866 -18.48252588 28.54713026 -22 30 C-19.64993288 23.26230757 -15.112379 17.75177333 -11 12 C-10.13375 10.77023438 -10.13375 10.77023438 -9.25 9.515625 C-6.51214992 5.72256187 -3.86875835 2.73088825 0 0 Z M-10 14 C-10.33 15.32 -10.66 16.64 -11 18 C-10.01 18 -9.02 18 -8 18 C-8.66 16.68 -9.32 15.36 -10 14 Z " fill="#2A65E8" transform="translate(69,34)"/>
<path d="M0 0 C0.99 0.99 1.98 1.98 3 3 C2.67 3.33 2.34 3.66 2 4 C1.75266863 8.14276875 1.75266863 8.14276875 3 12 C2.34 12 1.68 12 1 12 C1.061875 12.721875 1.12375 13.44375 1.1875 14.1875 C0.96252189 17.5621716 -0.19428495 19.18308452 -2 22 C-2.69579454 24.19130534 -2.69579454 24.19130534 -3 26 C-3.66 26 -4.32 26 -5 26 C-5 27.32 -5 28.64 -5 30 C-5.66 30 -6.32 30 -7 30 C-7.33 30.99 -7.66 31.98 -8 33 C-9.32 32.67 -10.64 32.34 -12 32 C-12 33.32 -12 34.64 -12 36 C-13.32 36 -14.64 36 -16 36 C-16 35.01 -16 34.02 -16 33 C-15.01 32.505 -15.01 32.505 -14 32 C-14.33 31.67 -14.66 31.34 -15 31 C-15.04092937 28.66702567 -15.04241723 26.33294775 -15 24 C-14.34 24 -13.68 24 -13 24 C-13.061875 22.8553125 -13.061875 22.8553125 -13.125 21.6875 C-13 19 -13 19 -11 16 C-10.34 16 -9.68 16 -9 16 C-8.67 15.01 -8.34 14.02 -8 13 C-6.69254251 11.31295807 -5.35827971 9.64639965 -4 8 C-2.22293791 5.33440687 -1.12451727 2.9719385 0 0 Z " fill="#D100E7" transform="translate(119,12)"/>
<path d="M0 0 C2.73530892 1.36765446 2.97576407 2.82741721 4.1640625 5.62109375 C4.56367187 6.55630859 4.96328125 7.49152344 5.375 8.45507812 C5.99375 9.93137695 5.99375 9.93137695 6.625 11.4375 C7.04523437 12.41783203 7.46546875 13.39816406 7.8984375 14.40820312 C11 21.72406402 11 21.72406402 11 24 C4.07 24 -2.86 24 -10 24 C-8.77191441 20.31574324 -7.62475922 16.97123826 -6.0546875 13.4765625 C-5.52294922 12.28740234 -5.52294922 12.28740234 -4.98046875 11.07421875 C-4.43326172 9.86185547 -4.43326172 9.86185547 -3.875 8.625 C-3.50246094 7.79355469 -3.12992188 6.96210937 -2.74609375 6.10546875 C-1.83326454 4.06915745 -0.91784402 2.03405461 0 0 Z " fill="#060605" transform="translate(640,30)"/>
<path d="M0 0 C2.17504747 2.72296905 3.70698239 5.29692787 5.04296875 8.51171875 C5.39423828 9.35154297 5.74550781 10.19136719 6.10742188 11.05664062 C6.64206055 12.35891602 6.64206055 12.35891602 7.1875 13.6875 C7.55552734 14.56728516 7.92355469 15.44707031 8.30273438 16.35351562 C11 22.84396742 11 22.84396742 11 24 C4.07 24 -2.86 24 -10 24 C-8.77191441 20.31574324 -7.62475922 16.97123826 -6.0546875 13.4765625 C-5.52294922 12.28740234 -5.52294922 12.28740234 -4.98046875 11.07421875 C-4.43326172 9.86185547 -4.43326172 9.86185547 -3.875 8.625 C-3.50246094 7.79355469 -3.12992187 6.96210937 -2.74609375 6.10546875 C-1.83326454 4.06915745 -0.91784402 2.03405461 0 0 Z " fill="#060604" transform="translate(369,30)"/>
<path d="M0 0 C0 0.66 0 1.32 0 2 C0.99 2.33 1.98 2.66 3 3 C2.01 3.495 2.01 3.495 1 4 C1 4.66 1 5.32 1 6 C0.34 6 -0.32 6 -1 6 C-1.28875 6.598125 -1.5775 7.19625 -1.875 7.8125 C-3 10 -3 10 -5 13 C-5.66 13 -6.32 13 -7 13 C-7.433125 13.8971875 -7.433125 13.8971875 -7.875 14.8125 C-9 17 -9 17 -11 20 C-11.66 20 -12.32 20 -13 20 C-13 20.66 -13 21.32 -13 22 C-13.66 22 -14.32 22 -15 22 C-15 22.66 -15 23.32 -15 24 C-15.66 24 -16.32 24 -17 24 C-17 24.66 -17 25.32 -17 26 C-17.66 26 -18.32 26 -19 26 C-19.66 27.32 -20.32 28.64 -21 30 C-21.66 30 -22.32 30 -23 30 C-23 30.66 -23 31.32 -23 32 C-24.98 32.495 -24.98 32.495 -27 33 C-27 28.06041431 -24.32458662 23.6016355 -21 20 C-20.01 20 -19.02 20 -18 20 C-18 18.68 -18 17.36 -18 16 C-17.34 15.67 -16.68 15.34 -16 15 C-15.65657551 13.66923011 -15.32380126 12.33568021 -15 11 C-14.34 10.34 -13.68 9.68 -13 9 C-12.01 9 -11.02 9 -10 9 C-9.67 6.69 -9.34 4.38 -9 2 C-5.62902617 0.50178941 -3.79557881 0 0 0 Z " fill="#5535E8" transform="translate(85,46)"/>
<path d="M0 0 C0.66 0.33 1.32 0.66 2 1 C2 2.32 2 3.64 2 5 C1.34 5 0.68 5 0 5 C0.33 5.99 0.66 6.98 1 8 C0 11 0 11 -2 12 C-1.67 13.32 -1.34 14.64 -1 16 C-1.66 16 -2.32 16 -3 16 C-3.25523438 16.57234375 -3.51046875 17.1446875 -3.7734375 17.734375 C-5.13087159 20.24173733 -6.71974104 22.1330456 -8.625 24.25 C-9.25664063 24.95640625 -9.88828125 25.6628125 -10.5390625 26.390625 C-11.02117188 26.92171875 -11.50328125 27.4528125 -12 28 C-12.99 26.68 -13.98 25.36 -15 24 C-14.34 24 -13.68 24 -13 24 C-13 23.01 -13 22.02 -13 21 C-14.32 20.67 -15.64 20.34 -17 20 C-16.01 19.67 -15.02 19.34 -14 19 C-11.59004634 16.36458982 -11.59004634 16.36458982 -11 13 C-16.66129431 17.69766975 -21.85228904 22.74723372 -27 28 C-27.66 27.67 -28.32 27.34 -29 27 C-28.60208252 26.61255615 -28.20416504 26.2251123 -27.79418945 25.82592773 C-25.96149133 24.03528717 -24.13700451 22.23648696 -22.3125 20.4375 C-21.68666016 19.82841797 -21.06082031 19.21933594 -20.41601562 18.59179688 C-17.38986659 15.59733526 -14.66698642 12.67057569 -12.26953125 9.14453125 C-9.40727849 5.17875935 -7.49918106 4.66636336 -3 3 C-1.11970761 1.46048953 -1.11970761 1.46048953 0 0 Z " fill="#3458E2" transform="translate(73,10)"/>
<path d="M0 0 C0.66 0.33 1.32 0.66 2 1 C1.67 2.32 1.34 3.64 1 5 C0.34 5 -0.32 5 -1 5 C-0.690625 6.175625 -0.690625 6.175625 -0.375 7.375 C-0.25125 8.24125 -0.1275 9.1075 0 10 C-0.66 10.66 -1.32 11.32 -2 12 C-2 13.32 -2 14.64 -2 16 C-2.66 16.66 -3.32 17.32 -4 18 C-4.33 18.66 -4.66 19.32 -5 20 C-5.804375 20.4125 -6.60875 20.825 -7.4375 21.25 C-10.70420863 23.48092297 -10.98626625 25.25698306 -12 29 C-12.66 29.99 -13.32 30.98 -14 32 C-13.34 32.66 -12.68 33.32 -12 34 C-17.75 38 -17.75 38 -20 38 C-21.14179885 30.57830748 -18.27979299 26.59451196 -14.140625 20.5390625 C-12.13516694 18.16032575 -10.87009685 17.07305423 -8 16 C-8 14.02 -8 12.04 -8 10 C-7.34 10 -6.68 10 -6 10 C-5.731875 9.4225 -5.46375 8.845 -5.1875 8.25 C-3.98160781 5.96515163 -2.56902164 4.04654996 -1 2 C-0.67 1.34 -0.34 0.68 0 0 Z " fill="#4514B0" transform="translate(72,46)"/>
<path d="M0 0 C3.24208567 0.35049575 4.61527704 0.56221181 6.8125 3.0625 C7.204375 3.701875 7.59625 4.34125 8 5 C6.625 7 6.625 7 5 9 C4.34 9 3.68 9 3 9 C2.67 10.98 2.34 12.96 2 15 C1.01 15 0.02 15 -1 15 C-1.0825 15.61875 -1.165 16.2375 -1.25 16.875 C-2 19 -2 19 -4.0625 20.25 C-4.701875 20.4975 -5.34125 20.745 -6 21 C-8.02320616 16.32133576 -8.4894391 12.92660624 -7 8 C-5.49097944 5.74709606 -3.8895596 3.98173324 -2 2 C-1.34 2 -0.68 2 0 2 C0 1.34 0 0.68 0 0 Z " fill="#DB00F0" transform="translate(114,2)"/>
<path d="M0 0 C0.66 1.32 1.32 2.64 2 4 C1.01 5.485 1.01 5.485 0 7 C0.97608217 9.92824652 2.10786631 11.61426621 4 14 C3.34 14 2.68 14 2 14 C1.01879536 17.05263664 1.01879536 18.94736336 2 22 C1.34 22.33 0.68 22.66 0 23 C-0.66 22.67 -1.32 22.34 -2 22 C-1.505 22.763125 -1.01 23.52625 -0.5 24.3125 C1 27 1 27 1 30 C-4.75 29.25 -4.75 29.25 -7 27 C-8.84203191 17.44082388 -4.28887581 8.29717097 0 0 Z " fill="#9A04F7" transform="translate(97,50)"/>
<path d="M0 0 C1.485 0.99 1.485 0.99 3 2 C1.68 1.67 0.36 1.34 -1 1 C-0.67 0.67 -0.34 0.34 0 0 Z M-2 2 C-1.67 2.99 -1.34 3.98 -1 5 C-0.34 5 0.32 5 1 5 C1.91241904 13.39763447 1.91241904 13.39763447 -0.265625 17.22265625 C-1.76224402 18.99171805 -3.17457933 20.57182113 -5 22 C-5.66 22 -6.32 22 -7 22 C-7.33 22.66 -7.66 23.32 -8 24 C-8 23.34 -8 22.68 -8 22 C-8.99 21.67 -9.98 21.34 -11 21 C-10.01 21 -9.02 21 -8 21 C-8.66 19.02 -9.32 17.04 -10 15 C-12.92879371 15.62759865 -15.36095629 16.58622659 -18 18 C-16.54494569 14.60487328 -14.92031741 12.28889743 -12 10 C-8.25 9.25 -8.25 9.25 -5 9 C-4.87625 8.401875 -4.7525 7.80375 -4.625 7.1875 C-4 5 -4 5 -2 2 Z " fill="#00C3E4" transform="translate(35,50)"/>
<path d="M0 0 C0.99 0.99 1.98 1.98 3 3 C1.35 4.65 -0.3 6.3 -2 8 C-1.608125 8.886875 -1.21625 9.77375 -0.8125 10.6875 C0 14 0 14 -1.25 16.6875 C-1.8275 17.450625 -2.405 18.21375 -3 19 C-3.66 19.99 -4.32 20.98 -5 22 C-5.66 22 -6.32 22 -7 22 C-7 22.66 -7 23.32 -7 24 C-7.66 24 -8.32 24 -9 24 C-9 24.66 -9 25.32 -9 26 C-9.66 26 -10.32 26 -11 26 C-11.33 26.66 -11.66 27.32 -12 28 C-11.814375 27.443125 -11.62875 26.88625 -11.4375 26.3125 C-10.92219908 23.58876658 -11.3658427 21.67755306 -12 19 C-12 18.34 -12 17.68 -12 17 C-11.34 17 -10.68 17 -10 17 C-10.27714844 16.13117187 -10.55429687 15.26234375 -10.83984375 14.3671875 C-11 11 -11 11 -8.69140625 8.0078125 C-7.66572083 7.02844836 -6.62188222 6.06781175 -5.5625 5.125 C-5.03333984 4.62742187 -4.50417969 4.12984375 -3.95898438 3.6171875 C-2.65454308 2.39500826 -1.32919454 1.19521173 0 0 Z " fill="#147BE5" transform="translate(61,22)"/>
<path d="M0 0 C0.66 1.32 1.32 2.64 2 4 C1.01 4 0.02 4 -1 4 C-0.67 2.68 -0.34 1.36 0 0 Z M1.125 5.9375 C2.07375 6.288125 3.0225 6.63875 4 7 C4 7.66 4 8.32 4 9 C3.34 9 2.68 9 2 9 C1.67 9.99 1.34 10.98 1 12 C0.34 12 -0.32 12 -1 12 C-1 12.99 -1 13.98 -1 15 C-0.34 15 0.32 15 1 15 C-0.41600689 21.13602988 -4.0663375 25.26698362 -8 30 C-8.66 29.67 -9.32 29.34 -10 29 C-9.39816251 26.97954558 -8.72693904 24.97888961 -8 23 C-7.34 22.67 -6.68 22.34 -6 22 C-6.66 21.67 -7.32 21.34 -8 21 C-8.66718452 18.09298171 -9.15975237 15.92118616 -9 13 C-7.125 10.6875 -7.125 10.6875 -5 9 C-4.67 8.01 -4.34 7.02 -4 6 C-2 5 -2 5 1.125 5.9375 Z " fill="#0B80F0" transform="translate(59,48)"/>
<path d="M0 0 C0 0.66 0 1.32 0 2 C0.66 2 1.32 2 2 2 C3.0160634 6.62873326 3.19585292 10.38742445 2 15 C-0.58860593 17.80432309 -1.99103488 18.91031421 -5.8125 19.25 C-6.534375 19.1675 -7.25625 19.085 -8 19 C-8 16 -8 16 -6 14 C-6 13.34 -6 12.68 -6 12 C-6.66 11.34 -7.32 10.68 -8 10 C-7.01 9.67 -6.02 9.34 -5 9 C-4.67 8.34 -4.34 7.68 -4 7 C-4.639375 6.731875 -5.27875 6.46375 -5.9375 6.1875 C-8 5 -8 5 -9 2 C-5.86501708 0.14223235 -3.62528568 -0.20140476 0 0 Z " fill="#7D1DD2" transform="translate(92,0)"/>
<path d="M0 0 C0.99 0.99 1.98 1.98 3 3 C2.67 3.33 2.34 3.66 2 4 C1.75266863 8.14276875 1.75266863 8.14276875 3 12 C2.34 12 1.68 12 1 12 C1.061875 12.721875 1.12375 13.44375 1.1875 14.1875 C0.95526736 17.67098964 0.27338765 19.3477144 -2 22 C-5.1875 22.3125 -5.1875 22.3125 -8 22 C-8.33 19.03 -8.66 16.06 -9 13 C-8.34 12.67 -7.68 12.34 -7 12 C-3.93035597 8.34003981 -1.51731385 4.55194156 0 0 Z " fill="#E800F2" transform="translate(119,12)"/>
<path d="M0 0 C1.0828125 0.37125 1.0828125 0.37125 2.1875 0.75 C2.5175 2.4 2.8475 4.05 3.1875 5.75 C1.2075 6.74 1.2075 6.74 -0.8125 7.75 C-0.1525 8.08 0.5075 8.41 1.1875 8.75 C1.1875 9.41 1.1875 10.07 1.1875 10.75 C1.8475 11.08 2.5075 11.41 3.1875 11.75 C2.1975 12.245 2.1975 12.245 1.1875 12.75 C0.5275 12.42 -0.1325 12.09 -0.8125 11.75 C-0.8125 11.09 -0.8125 10.43 -0.8125 9.75 C-3.63212538 10.49752859 -6.25776606 11.32664824 -8.8125 12.75 C-10.41245382 15.79021368 -10.41245382 15.79021368 -10.8125 18.75 C-12.1325 18.42 -13.4525 18.09 -14.8125 17.75 C-14.8125 16.76 -14.8125 15.77 -14.8125 14.75 C-14.1525 14.42 -13.4925 14.09 -12.8125 13.75 C-12.503125 12.821875 -12.19375 11.89375 -11.875 10.9375 C-10.10744438 5.63483313 -6.2006525 -0.55116911 0 0 Z " fill="#732AF0" transform="translate(85.8125,36.25)"/>
<path d="M0 0 C0.66 0.33 1.32 0.66 2 1 C2 1.66 2 2.32 2 3 C2.99 3.33 3.98 3.66 5 4 C2.08497315 5.79434505 -0.83230245 7.5850015 -3.75 9.375 C-4.575 9.88289063 -5.4 10.39078125 -6.25 10.9140625 C-7.04921875 11.40390625 -7.8484375 11.89375 -8.671875 12.3984375 C-9.4050293 12.84880371 -10.13818359 13.29916992 -10.89355469 13.76318359 C-12.89204216 14.93661168 -14.91477343 15.99035472 -17 17 C-17.5625 14.375 -17.5625 14.375 -17 11 C-14.28112043 8.54006134 -11.16414111 6.82903984 -8 5 C-6.51942194 4.02296879 -5.04013571 3.04397546 -3.5625 2.0625 C-1.62890625 0.78515625 -1.62890625 0.78515625 0 0 Z " fill="#D49B41" transform="translate(165,32)"/>
<path d="M0 0 C0 1.66666667 0 3.33333333 0 5 C0.99 6.485 0.99 6.485 2 8 C1.67 8.66 1.34 9.32 1 10 C-0.32 10 -1.64 10 -3 10 C-3 10.66 -3 11.32 -3 12 C-4.32 12 -5.64 12 -7 12 C-7 12.66 -7 13.32 -7 14 C-7.66 13.67 -8.32 13.34 -9 13 C-9.66 13 -10.32 13 -11 13 C-13 11 -13 11 -13.1953125 8.8359375 C-13.17210938 8.02382812 -13.14890625 7.21171875 -13.125 6.375 C-13.10695313 5.55773437 -13.08890625 4.74046875 -13.0703125 3.8984375 C-13.04710938 3.27195312 -13.02390625 2.64546875 -13 2 C-12.34 2 -11.68 2 -11 2 C-11 3.32 -11 4.64 -11 6 C-10.01 5.34 -9.02 4.68 -8 4 C-5.3125 3.875 -5.3125 3.875 -3 4 C-3 3.34 -3 2.68 -3 2 C-2.01 1.34 -1.02 0.68 0 0 Z " fill="#6F019A" transform="translate(115,62)"/>
<path d="M0 0 C0.625 3.125 0.625 3.125 0 7 C-2.99240507 9.77402442 -6.19605548 11.55061384 -10 13 C-13.875 12.8125 -13.875 12.8125 -17 12 C-19.32158065 12.34659295 -19.32158065 12.34659295 -21 13 C-17.11051443 9.76987484 -13.05951284 6.97483373 -8.8125 4.25 C-7.86987305 3.63318359 -7.86987305 3.63318359 -6.90820312 3.00390625 C-2.24266767 0 -2.24266767 0 0 0 Z " fill="#A3486D" transform="translate(148,43)"/>
<path d="M0 0 C0.66 0 1.32 0 2 0 C0.50163895 3.11198065 -1.19933758 6.0534615 -3 9 C-2.01 10.485 -2.01 10.485 -1 12 C-1.66 12 -2.32 12 -3 12 C-3 12.66 -3 13.32 -3 14 C-2.34 14.66 -1.68 15.32 -1 16 C-1.66 16 -2.32 16 -3 16 C-2.34 17.32 -1.68 18.64 -1 20 C-5 20 -5 20 -7.0625 18.0625 C-7.701875 17.381875 -8.34125 16.70125 -9 16 C-9.99 15.67 -10.98 15.34 -12 15 C-12 14.01 -12 13.02 -12 12 C-11.34 12 -10.68 12 -10 12 C-9.34 10.68 -8.68 9.36 -8 8 C-7.34 8 -6.68 8 -6 8 C-6 7.34 -6 6.68 -6 6 C-5.34 6 -4.68 6 -4 6 C-4 5.34 -4 4.68 -4 4 C-3.34 4 -2.68 4 -2 4 C-2 3.34 -2 2.68 -2 2 C-1.34 2 -0.68 2 0 2 C0 1.34 0 0.68 0 0 Z " fill="#C600FA" transform="translate(110,4)"/>
<path d="M0 0 C0.66 0.33 1.32 0.66 2 1 C0.86558395 3.55243612 -0.32422023 5.39097145 -2.125 7.5625 C-4.30485538 9.88377389 -4.30485538 9.88377389 -4 13 C-3.34 13.66 -2.68 14.32 -2 15 C-2.33 15.66 -2.66 16.32 -3 17 C-2.34 17.33 -1.68 17.66 -1 18 C-1.66 18 -2.32 18 -3 18 C-2.67 19.32 -2.34 20.64 -2 22 C-3.65 22.33 -5.3 22.66 -7 23 C-9.22791138 19.65813293 -9.21077197 18.2121216 -8.61328125 14.33203125 C-7.13859293 8.72445848 -4.87734101 3.25156067 0 0 Z " fill="#0C98D9" transform="translate(49,62)"/>
<path d="M0 0 C1.65 0.33 3.3 0.66 5 1 C4.67 1.99 4.34 2.98 4 4 C4.33 4.66 4.66 5.32 5 6 C4.34 6 3.68 6 3 6 C3 6.66 3 7.32 3 8 C2.34 8 1.68 8 1 8 C1 8.66 1 9.32 1 10 C0.34 10 -0.32 10 -1 10 C-1.66 11.32 -2.32 12.64 -3 14 C-3.66 14 -4.32 14 -5 14 C-5 14.66 -5 15.32 -5 16 C-6.32 16.33 -7.64 16.66 -9 17 C-9 12.06041431 -6.32458662 7.6016355 -3 4 C-2.01 4 -1.02 4 0 4 C0 2.68 0 1.36 0 0 Z " fill="#5E2CCD" transform="translate(67,62)"/>
<path d="M0 0 C1.65 0.99 3.3 1.98 5 3 C4.01 3.495 4.01 3.495 3 4 C2.34786708 6.02463255 2.34786708 6.02463255 2 8 C2.66 8.33 3.32 8.66 4 9 C3.54337885 13.10959039 3.19432019 15.31677104 0 18 C-0.66 18.99 -1.32 19.98 -2 21 C-2.33 19.35 -2.66 17.7 -3 16 C-3.66 16 -4.32 16 -5 16 C-5 15.01 -5 14.02 -5 13 C-4.01 13 -3.02 13 -2 13 C-2.10699219 12.31292969 -2.21398437 11.62585937 -2.32421875 10.91796875 C-2.44410156 10.01691406 -2.56398438 9.11585937 -2.6875 8.1875 C-2.81511719 7.29417969 -2.94273438 6.40085937 -3.07421875 5.48046875 C-3 3 -3 3 -1.51953125 1.17578125 C-1.01808594 0.78777344 -0.51664062 0.39976563 0 0 Z " fill="#3550EB" transform="translate(69,34)"/>
<path d="M0 0 C1.65 0.33 3.3 0.66 5 1 C4.01 1.495 4.01 1.495 3 2 C2.24756445 3.92638012 2.24756445 3.92638012 2 6 C2.33 6.66 2.66 7.32 3 8 C2.34 8 1.68 8 1 8 C1 9.98 1 11.96 1 14 C-0.32 13.67 -1.64 13.34 -3 13 C-4.60080151 8.99799622 -3.29279692 5.95443764 -2 2 C-1.34 2 -0.68 2 0 2 C0 1.34 0 0.68 0 0 Z M3 15 C2.01 15.495 2.01 15.495 1 16 C0.34227572 19.02934491 0.34227572 19.02934491 0 22 C-0.99 22.33 -1.98 22.66 -3 23 C-3.99 21.68 -4.98 20.36 -6 19 C-5.34 18.34 -4.68 17.68 -4 17 C-4.66 16.34 -5.32 15.68 -6 15 C-2.52176885 13.84058962 -0.54104422 14.29179116 3 15 Z " fill="#9905F2" transform="translate(96,18)"/>
<path d="M0 0 C3.35595828 0.59927826 5.37801226 1.84622436 8 4 C6.55575365 7.23861303 4.74227753 9.61969163 2.375 12.25 C1.74335937 12.95640625 1.11171875 13.6628125 0.4609375 14.390625 C-0.26222656 15.18726563 -0.26222656 15.18726563 -1 16 C-1.99 14.68 -2.98 13.36 -4 12 C-3.34 12 -2.68 12 -2 12 C-2 11.01 -2 10.02 -2 9 C-3.32 8.67 -4.64 8.34 -6 8 C-5.01 7.67 -4.02 7.34 -3 7 C-0.67734388 4.41927097 0 3.54823932 0 0 Z " fill="#2168D9" transform="translate(62,22)"/>
<path d="M0 0 C0.33 0.99 0.66 1.98 1 3 C-0.98 3.99 -0.98 3.99 -3 5 C-2.67 5.99 -2.34 6.98 -2 8 C-2.99 8.495 -2.99 8.495 -4 9 C-4 10.32 -4 11.64 -4 13 C-1.03 13.495 -1.03 13.495 2 14 C1 17 1 17 -0.6875 18.1875 C-3.54969093 19.19313465 -5.98827908 19.13689641 -9 19 C-9.81413105 13.64999598 -8.74318703 11.13559703 -5.625 6.6875 C-3.84217557 4.29205894 -2.11116789 2.11116789 0 0 Z " fill="#13C3C6" transform="translate(9,75)"/>
<path d="M0 0 C0.33 0.99 0.66 1.98 1 3 C-0.9375 6.1875 -0.9375 6.1875 -3 9 C-2.01 10.485 -2.01 10.485 -1 12 C-6.75 16 -6.75 16 -9 16 C-9.69143217 9.54663312 -8.57756102 6.56872032 -4.60546875 1.46875 C-3 0 -3 0 0 0 Z " fill="#350FA5" transform="translate(61,68)"/>
<path d="M0 0 C1.32 0 2.64 0 4 0 C4 0.66 4 1.32 4 2 C4.99 2.33 5.98 2.66 7 3 C6.01 3.495 6.01 3.495 5 4 C4.8453125 5.0828125 4.8453125 5.0828125 4.6875 6.1875 C3.72774257 10.1137804 1.70144705 12.02148146 -1 15 C-1.185625 14.13375 -1.185625 14.13375 -1.375 13.25 C-1.88463257 10.96195659 -1.88463257 10.96195659 -3.25 9.125 C-4 7 -4 7 -2.6875 3.8125 C-1 1 -1 1 0 0 Z " fill="#0093E0" transform="translate(44,43)"/>
<path d="M0 0 C1.32 0.66 2.64 1.32 4 2 C3.01 2.495 3.01 2.495 2 3 C2 3.66 2 4.32 2 5 C1.34 5 0.68 5 0 5 C0.66 6.32 1.32 7.64 2 9 C1.34 9 0.68 9 0 9 C-0.33 9.66 -0.66 10.32 -1 11 C-1 10.34 -1 9.68 -1 9 C-4.54518884 10.39759905 -4.54518884 10.39759905 -8 12 C-8.66 11.67 -9.32 11.34 -10 11 C-10.33 11.99 -10.66 12.98 -11 14 C-11.99 13.67 -12.98 13.34 -14 13 C-12.77937479 11.55524014 -11.54807874 10.11949236 -10.3125 8.6875 C-9.62800781 7.88699219 -8.94351563 7.08648437 -8.23828125 6.26171875 C-5.97891133 3.97869051 -3.79709544 2.54864739 -1 1 C-0.67 0.67 -0.34 0.34 0 0 Z " fill="#0092DE" transform="translate(49,34)"/>
<path d="M0 0 C3.12826838 0.29100171 4.37427733 1.19380207 6.6875 3.25 C6.3575 4.24 6.0275 5.23 5.6875 6.25 C6.3475 6.91 7.0075 7.57 7.6875 8.25 C7.6875 9.57 7.6875 10.89 7.6875 12.25 C4.875 12.875 4.875 12.875 1.6875 13.25 C0.6975 12.59 -0.2925 11.93 -1.3125 11.25 C-1.3125 9.93 -1.3125 8.61 -1.3125 7.25 C-1.9725 6.59 -2.6325 5.93 -3.3125 5.25 C-2.6525 4.59 -1.9925 3.93 -1.3125 3.25 C-1.9725 2.59 -2.6325 1.93 -3.3125 1.25 C-2.3125 0.25 -2.3125 0.25 0 0 Z " fill="#7230EE" transform="translate(81.3125,3.75)"/>
<path d="M0 0 C0 0.66 0 1.32 0 2 C0.99 2.33 1.98 2.66 3 3 C2.01 3.495 2.01 3.495 1 4 C1 4.66 1 5.32 1 6 C0.34 6 -0.32 6 -1 6 C-1.33 6.99 -1.66 7.98 -2 9 C-3.32 8.67 -4.64 8.34 -6 8 C-6 8.99 -6 9.98 -6 11 C-6.99 10.67 -7.98 10.34 -9 10 C-9.90130793 7.82183917 -10.0130784 6.22233277 -9.875 3.875 C-9 2 -9 2 -6.6875 0.75 C-4 0 -4 0 0 0 Z " fill="#692FE9" transform="translate(85,46)"/>
<path d="M0 0 C1.109375 1.76171875 1.109375 1.76171875 2 4 C1.390625 5.89453125 1.390625 5.89453125 0.25 7.8125 C-2.92499182 13.60471481 -4.89916639 19.32047828 -4 26 C-1.6273026 28.00864359 -1.6273026 28.00864359 1 29 C-0.75 29.6875 -0.75 29.6875 -3 30 C-5.47285258 28.58235353 -6.78386101 27.7721379 -7.56640625 24.9765625 C-7.5513325 15.90216545 -4.12108958 7.97257516 0 0 Z " fill="#711F92" transform="translate(97,50)"/>
<path d="M0 0 C0.66 0.33 1.32 0.66 2 1 C2 1.99 2 2.98 2 4 C1.34 4 0.68 4 0 4 C-0.66 6.64 -1.32 9.28 -2 12 C-2.66 12 -3.32 12 -4 12 C-4 13.32 -4 14.64 -4 16 C-4.66 16 -5.32 16 -6 16 C-6.33 16.66 -6.66 17.32 -7 18 C-7 17.34 -7 16.68 -7 16 C-8.65 16 -10.3 16 -12 16 C-12 15.34 -12 14.68 -12 14 C-11.34 14 -10.68 14 -10 14 C-10 13.34 -10 12.68 -10 12 C-9.34 12 -8.68 12 -8 12 C-8 11.34 -8 10.68 -8 10 C-7.34 10 -6.68 10 -6 10 C-6 9.34 -6 8.68 -6 8 C-5.34 8 -4.68 8 -4 8 C-3.67 6.35 -3.34 4.7 -3 3 C-2.01 2.67 -1.02 2.34 0 2 C0 1.34 0 0.68 0 0 Z " fill="#3F054B" transform="translate(108,24)"/>
<path d="M0 0 C0.66 1.32 1.32 2.64 2 4 C1.01 4 0.02 4 -1 4 C-0.67 2.68 -0.34 1.36 0 0 Z M-2 5 C1.1875 5.875 1.1875 5.875 4 7 C4 7.66 4 8.32 4 9 C3.34 9 2.68 9 2 9 C1.67 9.99 1.34 10.98 1 12 C0.34 12 -0.32 12 -1 12 C-1 12.99 -1 13.98 -1 15 C-0.34 15 0.32 15 1 15 C0.67 16.32 0.34 17.64 0 19 C-0.99 18.67 -1.98 18.34 -3 18 C-3 17.34 -3 16.68 -3 16 C-3.66 15.34 -4.32 14.68 -5 14 C-5.3125 10.5 -5.3125 10.5 -5 7 C-4.01 6.34 -3.02 5.68 -2 5 Z " fill="#2377DB" transform="translate(59,48)"/>
<path d="M0 0 C0.33 0.99 0.66 1.98 1 3 C-0.31306433 5.0133653 -1.64837492 7.01231606 -3 9 C-3.78215588 11.7282504 -3.78215588 11.7282504 -4 14 C-4.66 14 -5.32 14 -6 14 C-6.33 14.66 -6.66 15.32 -7 16 C-7.515625 16.66 -8.03125 17.32 -8.5625 18 C-10.19454535 19.86017053 -10.19454535 19.86017053 -10 22 C-11.98 22.99 -13.96 23.98 -16 25 C-14.51971809 20.74122104 -12.28644686 17.26758063 -9.6875 13.625 C-9.28668213 13.05499268 -8.88586426 12.48498535 -8.47290039 11.89770508 C-7.32046814 10.26146103 -6.16041939 8.63058932 -5 7 C-4.15695313 5.81083984 -4.15695313 5.81083984 -3.296875 4.59765625 C-2.20342441 3.06116964 -1.10284729 1.52975592 0 0 Z " fill="#287FAA" transform="translate(63,39)"/>
<path d="M0 0 C-0.33 1.65 -0.66 3.3 -1 5 C-1.66 5 -2.32 5 -3 5 C-3 5.66 -3 6.32 -3 7 C-6.05847848 7.54372951 -8.88772805 8 -12 8 C-11.38722388 5.03824877 -10.74627478 3.61941217 -9 1 C-3.72897196 -1.24299065 -3.72897196 -1.24299065 0 0 Z " fill="#9F00B6" transform="translate(125,61)"/>
<path d="M0 0 C1.485 0.99 1.485 0.99 3 2 C1.68 1.67 0.36 1.34 -1 1 C-0.67 0.67 -0.34 0.34 0 0 Z M-2 2 C-1.67 2.99 -1.34 3.98 -1 5 C-0.34 5 0.32 5 1 5 C1 8.3 1 11.6 1 15 C-0.98 15 -2.96 15 -5 15 C-5 14.34 -5 13.68 -5 13 C-5.66 12.34 -6.32 11.68 -7 11 C-6.34 10.01 -5.68 9.02 -5 8 C-4.67 7.01 -4.34 6.02 -4 5 C-3.34 4.01 -2.68 3.02 -2 2 Z " fill="#00C1F8" transform="translate(35,50)"/>
<path d="M0 0 C0 0.66 0 1.32 0 2 C-1.828125 3.5078125 -1.828125 3.5078125 -4.25 5.125 C-5.03890625 5.66382813 -5.8278125 6.20265625 -6.640625 6.7578125 C-9 8 -9 8 -13 8 C-13.33 7.01 -13.66 6.02 -14 5 C-12.61765122 3.96097967 -11.21844209 2.94436554 -9.8125 1.9375 C-9.03519531 1.36902344 -8.25789062 0.80054687 -7.45703125 0.21484375 C-4.48016155 -1.25702664 -3.112514 -0.96747771 0 0 Z " fill="#E5A91C" transform="translate(180,27)"/>
<path d="M0 0 C0.66 0.66 1.32 1.32 2 2 C1.34 3.32 0.68 4.64 0 6 C0.99 6.33 1.98 6.66 3 7 C2.67 7.66 2.34 8.32 2 9 C2.33 9.66 2.66 10.32 3 11 C2.34 11 1.68 11 1 11 C1 11.66 1 12.32 1 13 C-0.65 13 -2.3 13 -4 13 C-4.33 12.34 -4.66 11.68 -5 11 C-6.32 11.99 -7.64 12.98 -9 14 C-7.65070536 10.16336928 -5.92248975 7.34827431 -3.375 4.1875 C-2.42753906 3.00220703 -2.42753906 3.00220703 -1.4609375 1.79296875 C-0.97882813 1.20128906 -0.49671875 0.60960938 0 0 Z " fill="#464CBC" transform="translate(74,24)"/>
<path d="M0 0 C1.23042543 4.48359571 0.72952141 6.60439382 -1.4375 10.75 C-2.2109375 11.86375 -2.2109375 11.86375 -3 13 C-3.66 13 -4.32 13 -5 13 C-5 13.66 -5 14.32 -5 15 C-5.66 15 -6.32 15 -7 15 C-7 15.66 -7 16.32 -7 17 C-8.98 17.99 -8.98 17.99 -11 19 C-10.67 17.68 -10.34 16.36 -10 15 C-9.34 15 -8.68 15 -8 15 C-7.73445313 14.28457031 -7.46890625 13.56914062 -7.1953125 12.83203125 C-5.97085901 9.93095681 -4.52016937 7.36984136 -2.875 4.6875 C-2.33617188 3.80449219 -1.79734375 2.92148437 -1.2421875 2.01171875 C-0.83226563 1.34785156 -0.42234375 0.68398438 0 0 Z " fill="#170236" transform="translate(91,17)"/>
<path d="M0 0 C3.79588866 0.54226981 5.47211993 2.20127563 8 5 C6.68 4.67 5.36 4.34 4 4 C4 4.66 4 5.32 4 6 C3.34 6 2.68 6 2 6 C2.33 6.99 2.66 7.98 3 9 C0.93569642 11.94900512 -1.3929227 14.52327657 -4 17 C-4.66 16.67 -5.32 16.34 -6 16 C-4.66666667 13.33333333 -3.33333333 10.66666667 -2 8 C-1.01 8 -0.02 8 1 8 C1.20970559 3.85906302 1.20970559 3.85906302 0 0 Z " fill="#D500C7" transform="translate(115,9)"/>
<path d="M0 0 C0.56638908 4.81430721 -1.17438373 7.20307814 -4 11 C-5.32 10.67 -6.64 10.34 -8 10 C-7.01 9.67 -6.02 9.34 -5 9 C-4.67 8.34 -4.34 7.68 -4 7 C-4.639375 6.731875 -5.27875 6.46375 -5.9375 6.1875 C-8 5 -8 5 -9 2 C-5.86501708 0.14223235 -3.62528568 -0.20140476 0 0 Z " fill="#7926EE" transform="translate(92,0)"/>
<path d="M0 0 C0.625 2.625 0.625 2.625 0 6 C-3.05271562 8.54674065 -6.3144119 10.50835253 -10 12 C-10.99 11.67 -11.98 11.34 -13 11 C-12.34 11 -11.68 11 -11 11 C-10.67 10.01 -10.34 9.02 -10 8 C-2.6 0 -2.6 0 0 0 Z " fill="#E15380" transform="translate(148,44)"/>
<path d="M0 0 C1.32 1.32 2.64 2.64 4 4 C4.66 3.67 5.32 3.34 6 3 C5.67 3.99 5.34 4.98 5 6 C4.34 6 3.68 6 3 6 C3 6.66 3 7.32 3 8 C0.1875 8.25 0.1875 8.25 -3 8 C-4.875 6.125 -4.875 6.125 -6 4 C-6 3.34 -6 2.68 -6 2 C-4.35 2 -2.7 2 -1 2 C-0.67 1.34 -0.34 0.68 0 0 Z " fill="#9F00E6" transform="translate(101,70)"/>
<path d="M0 0 C0.66 0 1.32 0 2 0 C2 0.66 2 1.32 2 2 C3.32 2.66 4.64 3.32 6 4 C5.67 4.99 5.34 5.98 5 7 C4.34 7 3.68 7 3 7 C3 7.66 3 8.32 3 9 C2.34 9 1.68 9 1 9 C1 9.66 1 10.32 1 11 C0.34 11 -0.32 11 -1 11 C-1.33 11.66 -1.66 12.32 -2 13 C-1.814375 12.443125 -1.62875 11.88625 -1.4375 11.3125 C-0.92219908 8.58876658 -1.3658427 6.67755306 -2 4 C-2 3.34 -2 2.68 -2 2 C-1.34 2 -0.68 2 0 2 C0 1.34 0 0.68 0 0 Z " fill="#0580ED" transform="translate(51,37)"/>
<path d="M0 0 C0 4.1975506 -2.30613997 6.3557208 -4.8125 9.5 C-5.26431641 10.08136719 -5.71613281 10.66273437 -6.18164062 11.26171875 C-10.79036794 17.14205112 -10.79036794 17.14205112 -13 19 C-13.66 19 -14.32 19 -15 19 C-13.51460715 13.71860321 -9.91327696 9.71945899 -6 6 C-5.34 6 -4.68 6 -4 6 C-3.566875 5.071875 -3.566875 5.071875 -3.125 4.125 C-2 2 -2 2 0 0 Z " fill="#081056" transform="translate(76,20)"/>
<path d="M0 0 C0.8971875 0.309375 0.8971875 0.309375 1.8125 0.625 C-2.73668033 4.54234973 -2.73668033 4.54234973 -5.0625 4.96875 C-8.16151975 5.92580022 -9.71419594 7.866109 -11.9375 10.1875 C-12.73671875 11.01378906 -13.5359375 11.84007812 -14.359375 12.69140625 C-15.26429687 13.64853516 -15.26429687 13.64853516 -16.1875 14.625 C-17.1775 14.295 -18.1675 13.965 -19.1875 13.625 C-18.1975 13.295 -17.2075 12.965 -16.1875 12.625 C-15.73697266 11.71621094 -15.73697266 11.71621094 -15.27734375 10.7890625 C-13.89452789 8.0432561 -12.20391269 6.82935363 -9.75 5 C-8.96753906 4.40960937 -8.18507813 3.81921875 -7.37890625 3.2109375 C-2.37866978 -0.40777196 -2.37866978 -0.40777196 0 0 Z " fill="#4B498A" transform="translate(85.1875,0.375)"/>
<path d="M0 0 C1 3 1 3 0 6 C-1.29103643 7.3743291 -2.6256709 8.70896357 -4 10 C-4.66 10.66 -5.32 11.32 -6 12 C-6 10.68 -6 9.36 -6 8 C-6.99 7.67 -7.98 7.34 -9 7 C-9 6.34 -9 5.68 -9 5 C-8.34 5 -7.68 5 -7 5 C-7 4.34 -7 3.68 -7 3 C-5.02 3 -3.04 3 -1 3 C-0.67 2.01 -0.34 1.02 0 0 Z " fill="#4845DB" transform="translate(79,35)"/>
<path d="M0 0 C0.66 0.33 1.32 0.66 2 1 C0.05780923 4.46125202 -1.96666141 7.20719483 -4.79296875 9.98828125 C-5.50517578 10.69404297 -6.21738281 11.39980469 -6.95117188 12.12695312 C-7.68916016 12.84818359 -8.42714844 13.56941406 -9.1875 14.3125 C-9.93708984 15.05306641 -10.68667969 15.79363281 -11.45898438 16.55664062 C-13.30153282 18.37571712 -15.14859662 20.18994389 -17 22 C-17.66 21.67 -18.32 21.34 -19 21 C-18.60208252 20.61255615 -18.20416504 20.2251123 -17.79418945 19.82592773 C-15.96149133 18.03528717 -14.13700451 16.23648696 -12.3125 14.4375 C-11.68666016 13.82841797 -11.06082031 13.21933594 -10.41601562 12.59179688 C-6.43431108 8.65178557 -3.12888475 4.64845784 0 0 Z " fill="#3A6499" transform="translate(63,16)"/>
<path d="M0 0 C2.31 0 4.62 0 7 0 C7 0.66 7 1.32 7 2 C7.99 2.33 8.98 2.66 10 3 C9.01 3.495 9.01 3.495 8 4 C8 4.66 8 5.32 8 6 C7.34 6 6.68 6 6 6 C6 6.66 6 7.32 6 8 C5.34 8 4.68 8 4 8 C3.67 8.66 3.34 9.32 3 10 C2.67 9.34 2.34 8.68 2 8 C2.33 7.34 2.66 6.68 3 6 C2.34 5.67 1.68 5.34 1 5 C0.67 5.66 0.34 6.32 0 7 C0 4 0 4 2 2 C1.34 1.34 0.68 0.68 0 0 Z " fill="#A600E8" transform="translate(94,28)"/>
<path d="M0 0 C2.4164124 0.48328248 4.65832183 1.21944061 7 2 C8.60725635 5.21451269 8.05748185 8.43612536 8 12 C6.5 10.6875 6.5 10.6875 5 9 C5 8.01 5 7.02 5 6 C4.38125 5.9175 3.7625 5.835 3.125 5.75 C1 5 1 5 -0.25 2.9375 C-0.62125 1.9784375 -0.62125 1.9784375 -1 1 C-0.67 0.67 -0.34 0.34 0 0 Z " fill="#CF04BE" transform="translate(119,0)"/>
<path d="M0 0 C0.33 0.66 0.66 1.32 1 2 C0.34 2.66 -0.32 3.32 -1 4 C-0.01 5.485 -0.01 5.485 1 7 C-2.96 8.98 -2.96 8.98 -7 11 C-7.4375 8.3125 -7.4375 8.3125 -7 5 C-4.88875077 2.95224699 -2.54140493 1.46519774 0 0 Z " fill="#D36D5E" transform="translate(155,38)"/>
<path d="M0 0 C0.66 0.33 1.32 0.66 2 1 C1.67 2.32 1.34 3.64 1 5 C0.34 5 -0.32 5 -1 5 C-0.731875 5.721875 -0.46375 6.44375 -0.1875 7.1875 C0 10 0 10 -2.4375 12.8125 C-3.283125 13.534375 -4.12875 14.25625 -5 15 C-5 9.09596234 -3.17982236 4.91427091 0 0 Z " fill="#5E13BA" transform="translate(72,46)"/>
<path d="M0 0 C0.66 0 1.32 0 2 0 C1.39816251 2.02045442 0.72693904 4.02111039 0 6 C-0.99 6.495 -0.99 6.495 -2 7 C-2.65213292 9.02463255 -2.65213292 9.02463255 -3 11 C-4.98 11 -6.96 11 -9 11 C-7.58226538 7.45566346 -6.32387762 6.66193881 -3 5 C-1.79117904 2.99983534 -1.79117904 2.99983534 -1 1 C-0.67 0.67 -0.34 0.34 0 0 Z " fill="#15AAB5" transform="translate(33,49)"/>
<path d="M0 0 C1.67542976 0.28604898 3.34385343 0.61781233 5 1 C5 1.66 5 2.32 5 3 C5.66 3 6.32 3 7 3 C6.34 4.65 5.68 6.3 5 8 C3.02 7.34 1.04 6.68 -1 6 C-1.042721 4.33388095 -1.04063832 2.66617115 -1 1 C-0.67 0.67 -0.34 0.34 0 0 Z " fill="#6032EC" transform="translate(79,22)"/>
<path d="M0 0 C2.31 0.66 4.62 1.32 7 2 C5.02 2.99 5.02 2.99 3 4 C3 4.66 3 5.32 3 6 C0.69 6 -1.62 6 -4 6 C-4 5.01 -4 4.02 -4 3 C-3.01 3 -2.02 3 -1 3 C-0.67 2.01 -0.34 1.02 0 0 Z " fill="#BC149E" transform="translate(131,54)"/>
<path d="M0 0 C0.66 0.33 1.32 0.66 2 1 C1.01 2.485 1.01 2.485 0 4 C-0.66 4 -1.32 4 -2 4 C-2 4.66 -2 5.32 -2 6 C-2.66 6 -3.32 6 -4 6 C-4.33 6.66 -4.66 7.32 -5 8 C-5.66 7.67 -6.32 7.34 -7 7 C-7 6.34 -7 5.68 -7 5 C-7.99 4.67 -8.98 4.34 -10 4 C-7.42233201 1.42233201 -5.54119318 1.51642401 -2 1 C-1.34 0.67 -0.68 0.34 0 0 Z " fill="#7620DE" transform="translate(94,40)"/>
<path d="M0 0 C3 1 3 1 3 1 Z M5 2 C4.01 2.495 4.01 2.495 3 3 C2.34227572 6.02934491 2.34227572 6.02934491 2 9 C1.01 9.33 0.02 9.66 -1 10 C-1.99 8.68 -2.98 7.36 -4 6 C-3.34 5.34 -2.68 4.68 -2 4 C-2.66 3.34 -3.32 2.68 -4 2 C-0.52176885 0.84058962 1.45895578 1.29179116 5 2 Z " fill="#950BFC" transform="translate(94,31)"/>
<path d="M0 0 C3.24208567 0.35049575 4.61527704 0.56221181 6.8125 3.0625 C7.204375 3.701875 7.59625 4.34125 8 5 C4.30581799 6.231394 1.7943739 5.64432764 -2 5 C-2 4.01 -2 3.02 -2 2 C-1.34 2 -0.68 2 0 2 C0 1.34 0 0.68 0 0 Z " fill="#E600E6" transform="translate(114,2)"/>
<path d="M0 0 C2.97 0.495 2.97 0.495 6 1 C5 4 5 4 2.6875 5.8125 C0 7 0 7 -2.3125 6.1875 C-2.869375 5.795625 -3.42625 5.40375 -4 5 C-3.67 4.34 -3.34 3.68 -3 3 C-2.34 3 -1.68 3 -1 3 C-0.67 2.01 -0.34 1.02 0 0 Z " fill="#E49044" transform="translate(157,37)"/>
<path d="M0 0 C0.66 0 1.32 0 2 0 C0.43387807 3.84411747 -2.02094121 6.15950209 -5 9 C-5.886875 9.928125 -6.77375 10.85625 -7.6875 11.8125 C-10 14 -10 14 -12 14 C-12 13.34 -12 12.68 -12 12 C-11.34 12 -10.68 12 -10 12 C-9.34 10.68 -8.68 9.36 -8 8 C-7.34 8 -6.68 8 -6 8 C-6 7.34 -6 6.68 -6 6 C-5.34 6 -4.68 6 -4 6 C-4 5.34 -4 4.68 -4 4 C-3.34 4 -2.68 4 -2 4 C-2 3.34 -2 2.68 -2 2 C-1.34 2 -0.68 2 0 2 C0 1.34 0 0.68 0 0 Z " fill="#9607AC" transform="translate(110,4)"/>
<path d="M0 0 C0.99 0 1.98 0 3 0 C3.84098656 4.01804691 4.05404945 7.01803543 3 11 C1.68 10.01 0.36 9.02 -1 8 C-0.67 5.36 -0.34 2.72 0 0 Z " fill="#8C18E7" transform="translate(91,2)"/>
<path d="M0 0 C0.82638376 2.89234315 1 4.88742431 1 8 C-0.65 8.66 -2.3 9.32 -4 10 C-4 7 -4 4 -4 1 C-2.68 0.67 -1.36 0.34 0 0 Z " fill="#BF00EE" transform="translate(107,48)"/>
<path d="M0 0 C1.32 0.33 2.64 0.66 4 1 C2.60667426 4.36720387 1.0210714 5.9859524 -2 8 C-5 4.25 -5 4.25 -5 2 C-2.03 2.495 -2.03 2.495 1 3 C0.67 2.01 0.34 1.02 0 0 Z " fill="#2C5CE3" transform="translate(66,25)"/>
<path d="M0 0 C0.66 0 1.32 0 2 0 C2 0.66 2 1.32 2 2 C2.99 2.33 3.98 2.66 5 3 C3.02 3.99 3.02 3.99 1 5 C1 5.66 1 6.32 1 7 C-0.32 7.33 -1.64 7.66 -3 8 C-3 4.40142046 -2.04169485 2.90548882 0 0 Z " fill="#551AB4" transform="translate(61,71)"/>
<path d="M0 0 C0.99 0 1.98 0 3 0 C2.04254782 3.22052097 1.4059336 4.71157349 -1.375 6.6875 C-2.24125 7.120625 -3.1075 7.55375 -4 8 C-4.763125 8.391875 -5.52625 8.78375 -6.3125 9.1875 C-6.869375 9.455625 -7.42625 9.72375 -8 10 C-8 9.34 -8 8.68 -8 8 C-7.34 8 -6.68 8 -6 8 C-6 7.34 -6 6.68 -6 6 C-5.34 6 -4.68 6 -4 6 C-3.71125 5.38125 -3.4225 4.7625 -3.125 4.125 C-2 2 -2 2 0 0 Z " fill="#010C1E" transform="translate(60,38)"/>
<path d="M0 0 C2.6875 0.3125 2.6875 0.3125 5 1 C5.33 2.65 5.66 4.3 6 6 C2.25 7.125 2.25 7.125 0 6 C0 5.34 0 4.68 0 4 C-0.99 3.67 -1.98 3.34 -3 3 C-1.8125 1.4375 -1.8125 1.4375 0 0 Z " fill="#7929F7" transform="translate(83,36)"/>
<path d="M0 0 C0.66 0.33 1.32 0.66 2 1 C1.896875 2.093125 1.79375 3.18625 1.6875 4.3125 C1.790625 5.529375 1.89375 6.74625 2 8 C4.3726974 10.00864359 4.3726974 10.00864359 7 11 C4.41481845 12.01560704 3.3531775 12.14715729 0.75 11.0625 C-2.00509856 7.81541956 -1.33636134 5.17088066 -1 1 C-0.67 0.67 -0.34 0.34 0 0 Z " fill="#701FA2" transform="translate(91,68)"/>
<path d="M0 0 C0.66 0.33 1.32 0.66 2 1 C0.61811547 4.21043882 -0.92421903 6.04936365 -3.625 8.25 C-4.25664063 8.77078125 -4.88828125 9.2915625 -5.5390625 9.828125 C-6.02117188 10.21484375 -6.50328125 10.6015625 -7 11 C-3.675 2.45 -3.675 2.45 0 0 Z " fill="#1B89B9" transform="translate(49,62)"/>
<path d="M0 0 C0.99 0.33 1.98 0.66 3 1 C3 3.64 3 6.28 3 9 C2.01 8.67 1.02 8.34 0 8 C-0.33 8.33 -0.66 8.66 -1 9 C-1.66 8.01 -2.32 7.02 -3 6 C-2.34 5.34 -1.68 4.68 -1 4 C-0.3574765 1.93125966 -0.3574765 1.93125966 0 0 Z " fill="#2F5FD1" transform="translate(64,38)"/>
<path d="M0 0 C1.98 0.495 1.98 0.495 4 1 C4 3.64 4 6.28 4 9 C3.01 9 2.02 9 1 9 C-0.61949011 6.42786866 -1.04408751 5.32330841 -0.625 2.25 C-0.41875 1.5075 -0.2125 0.765 0 0 Z " fill="#5F44D4" transform="translate(77,6)"/>
<path d="M0 0 C1.32 0 2.64 0 4 0 C4 1.98 4 3.96 4 6 C2.125 6.625 2.125 6.625 0 7 C-0.66 6.34 -1.32 5.68 -2 5 C-1.46428571 1.46428571 -1.46428571 1.46428571 0 0 Z " fill="#F107C4" transform="translate(122,6)"/>
<path d="M0 0 C-0.625 1.9375 -0.625 1.9375 -2 4 C-5.125 4.75 -5.125 4.75 -8 5 C-7.75 3.125 -7.75 3.125 -7 1 C-4.09342573 -1.03460199 -3.47133392 -1.15711131 0 0 Z " fill="#CFBD3D" transform="translate(213,6)"/>
<path d="M0 0 C0.33 1.32 0.66 2.64 1 4 C0.01 4.495 0.01 4.495 -1 5 C-1.33 5.66 -1.66 6.32 -2 7 C-2.99 7 -3.98 7 -5 7 C-5 6.34 -5 5.68 -5 5 C-5.66 5 -6.32 5 -7 5 C-6.67 4.01 -6.34 3.02 -6 2 C-3 1 -3 1 0 2 C0 1.34 0 0.68 0 0 Z " fill="#00E8F9" transform="translate(19,71)"/>
<path d="M0 0 C0.66 0.99 1.32 1.98 2 3 C1.01 3.495 1.01 3.495 0 4 C0 4.99 0 5.98 0 7 C-0.99 7.495 -0.99 7.495 -2 8 C-2.66 7.67 -3.32 7.34 -4 7 C-4.33 7.99 -4.66 8.98 -5 10 C-5.99 9.67 -6.98 9.34 -8 9 C-5.36 6.03 -2.72 3.06 0 0 Z " fill="#1698B2" transform="translate(43,38)"/>
<path d="M0 0 C1.32 1.32 2.64 2.64 4 4 C3.01 4.66 2.02 5.32 1 6 C0.27617533 8.05925139 0.27617533 8.05925139 0 10 C-0.99 9.01 -1.98 8.02 -3 7 C-1.125 1.125 -1.125 1.125 0 0 Z " fill="#5840CC" transform="translate(78,18)"/>
<path d="M0 0 C0.66 0.33 1.32 0.66 2 1 C2 2.32 2 3.64 2 5 C1.34 5 0.68 5 0 5 C0.33 5.99 0.66 6.98 1 8 C0.67 8.99 0.34 9.98 0 11 C-0.99 10.67 -1.98 10.34 -3 10 C-2.835 9.4225 -2.67 8.845 -2.5 8.25 C-1.85537969 5.73335631 -1.85537969 5.73335631 -2 2 C-1.34 1.34 -0.68 0.68 0 0 Z " fill="#464ED1" transform="translate(73,10)"/>
<path d="M0 0 C0.99 0.33 1.98 0.66 3 1 C2.47731534 3.76276177 1.89130413 6.3260876 1 9 C-0.32 8.67 -1.64 8.34 -3 8 C-3 7.01 -3 6.02 -3 5 C-2.34 4.67 -1.68 4.34 -1 4 C-0.34786708 1.97536745 -0.34786708 1.97536745 0 0 Z " fill="#7025D8" transform="translate(74,46)"/>
<path d="M0 0 C0.66 1.32 1.32 2.64 2 4 C1.01 4 0.02 4 -1 4 C-0.67 2.68 -0.34 1.36 0 0 Z M1.125 5.9375 C2.07375 6.288125 3.0225 6.63875 4 7 C3.01 7.33 2.02 7.66 1 8 C1 8.66 1 9.32 1 10 C-2 10 -2 10 -5 9 C-4.67 8.01 -4.34 7.02 -4 6 C-2 5 -2 5 1.125 5.9375 Z " fill="#1B77FF" transform="translate(59,48)"/>
<path d="M0 0 C0.99 0 1.98 0 3 0 C3.04898438 0.69867188 3.09796875 1.39734375 3.1484375 2.1171875 C3.22320312 3.02726563 3.29796875 3.93734375 3.375 4.875 C3.44460937 5.77992187 3.51421875 6.68484375 3.5859375 7.6171875 C3.79568132 10.17941903 3.79568132 10.17941903 6 12 C5.01 12.495 5.01 12.495 4 13 C3.01 12.34 2.02 11.68 1 11 C1 9.68 1 8.36 1 7 C0.34 6.34 -0.32 5.68 -1 5 C-0.34 4.34 0.32 3.68 1 3 C0.34 2.34 -0.32 1.68 -1 1 C-0.67 0.67 -0.34 0.34 0 0 Z " fill="#5E30FC" transform="translate(79,4)"/>
<path d="M0 0 C1.32 0 2.64 0 4 0 C4.33 0.99 4.66 1.98 5 3 C4.01 4.485 4.01 4.485 3 6 C0.375 6.1875 0.375 6.1875 -2 6 C-1.125 1.125 -1.125 1.125 0 0 Z " fill="#009CF2" transform="translate(44,43)"/>
<path d="M0 0 C1.65 0.33 3.3 0.66 5 1 C4.34 2.98 3.68 4.96 3 7 C2.01 7 1.02 7 0 7 C-1.125 2.25 -1.125 2.25 0 0 Z " fill="#B600D1" transform="translate(107,44)"/>
<path d="M0 0 C1.98 0 3.96 0 6 0 C6 1.32 6 2.64 6 4 C5.34 4 4.68 4 4 4 C3.67 4.66 3.34 5.32 3 6 C3 5.34 3 4.68 3 4 C1.35 4 -0.3 4 -2 4 C-2 3.34 -2 2.68 -2 2 C-1.34 2 -0.68 2 0 2 C0 1.34 0 0.68 0 0 Z " fill="#270636" transform="translate(98,36)"/>
<path d="M0 0 C0.99 0.33 1.98 0.66 3 1 C3 1.99 3 2.98 3 4 C3.99 4.33 4.98 4.66 6 5 C2.25 6.125 2.25 6.125 0 5 C-0.33 5.99 -0.66 6.98 -1 8 C-1.33 8 -1.66 8 -2 8 C-2.20086443 4.28400809 -2.1519437 3.22791555 0 0 Z " fill="#C201E0" transform="translate(108,28)"/>
<path d="M0 0 C-1.47692308 4.67692308 -1.47692308 4.67692308 -4.125 6.3125 C-4.74375 6.539375 -5.3625 6.76625 -6 7 C-6.99 6.01 -7.98 5.02 -9 4 C-3.375 0 -3.375 0 0 0 Z " fill="#D1B44B" transform="translate(186,21)"/>
<path d="M0 0 C0.99 0.99 1.98 1.98 3 3 C2.67 3.66 2.34 4.32 2 5 C-0.64860427 5.59355614 -3.29197322 5.74209269 -6 6 C-3.375 1.125 -3.375 1.125 0 0 Z " fill="#7D00A0" transform="translate(114,67)"/>
<path d="M0 0 C0.99 0.33 1.98 0.66 3 1 C3 1.99 3 2.98 3 4 C2.34 4.66 1.68 5.32 1 6 C0.34 5.67 -0.32 5.34 -1 5 C-1.33 5.66 -1.66 6.32 -2 7 C-3.32 5.35 -4.64 3.7 -6 2 C-4.125 1.375 -4.125 1.375 -2 1 C-1.34 1.66 -0.68 2.32 0 3 C0 2.01 0 1.02 0 0 Z " fill="#5935F8" transform="translate(78,53)"/>
<path d="M0 0 C3 1 3 1 4.1875 3.0625 C4.455625 3.701875 4.72375 4.34125 5 5 C4.34 5.66 3.68 6.32 3 7 C3 7.66 3 8.32 3 9 C2.01 8.67 1.02 8.34 0 8 C-1.22393475 5.04215769 -0.96516243 3.00272755 0 0 Z " fill="#643DD6" transform="translate(76,48)"/>
<path d="M0 0 C0.33 0.99 0.66 1.98 1 3 C-1.37705019 7.29697535 -4.03381225 10.13553107 -8 13 C-6.53181332 9.89257577 -4.79975 7.09528261 -2.875 4.25 C-2.33617187 3.45078125 -1.79734375 2.6515625 -1.2421875 1.828125 C-0.62730469 0.92320313 -0.62730469 0.92320313 0 0 Z " fill="#385F8C" transform="translate(63,39)"/>
<path d="M0 0 C3 0 3 0 5 1 C3.02 1.99 3.02 1.99 1 3 C1 3.66 1 4.32 1 5 C0.34 5 -0.32 5 -1 5 C-1 5.66 -1 6.32 -1 7 C-2.98 7.99 -2.98 7.99 -5 9 C-4.67 7.68 -4.34 6.36 -4 5 C-3.34 5 -2.68 5 -2 5 C-1.34 3.35 -0.68 1.7 0 0 Z " fill="#31125B" transform="translate(85,27)"/>
<path d="M0 0 C0.66 0.66 1.32 1.32 2 2 C1 5 1 5 -1 7 C-4.125 7.125 -4.125 7.125 -7 7 C-4.66666667 4.66666667 -2.33333333 2.33333333 0 0 Z " fill="#B900F1" transform="translate(105,12)"/>
<path d="M0 0 C0.556875 0.391875 1.11375 0.78375 1.6875 1.1875 C0.3675 1.1875 -0.9525 1.1875 -2.3125 1.1875 C-2.3125 2.5075 -2.3125 3.8275 -2.3125 5.1875 C-2.9725 5.1875 -3.6325 5.1875 -4.3125 5.1875 C-4.6425 5.8475 -4.9725 6.5075 -5.3125 7.1875 C-5.3125 6.5275 -5.3125 5.8675 -5.3125 5.1875 C-5.9725 5.1875 -6.6325 5.1875 -7.3125 5.1875 C-7.3125 4.1975 -7.3125 3.2075 -7.3125 2.1875 C-3.20088417 -1.12463498 -3.20088417 -1.12463498 0 0 Z " fill="#018ED9" transform="translate(53.3125,69.8125)"/>
<path d="M0 0 C2.31 0.33 4.62 0.66 7 1 C6.39816251 3.02045442 5.72693904 5.02111039 5 7 C4.01 7.495 4.01 7.495 3 8 C3 6.68 3 5.36 3 4 C1.68 3.34 0.36 2.68 -1 2 C-0.67 1.34 -0.34 0.68 0 0 Z " fill="#D800CF" transform="translate(113,26)"/>
<path d="M0 0 C2.3431213 0.25561323 4.67843403 0.59270772 7 1 C7.33 1.66 7.66 2.32 8 3 C4.94152152 3.54372951 2.11227195 4 -1 4 C-0.67 2.68 -0.34 1.36 0 0 Z " fill="#9000AD" transform="translate(114,65)"/>
<path d="M0 0 C0.66 0.33 1.32 0.66 2 1 C1.67 1.66 1.34 2.32 1 3 C1.66 3.33 2.32 3.66 3 4 C2.01 5.485 2.01 5.485 1 7 C0.34 7 -0.32 7 -1 7 C-1.33 7.66 -1.66 8.32 -2 9 C-3 6 -3 6 -3 3 C-1.5 1.3125 -1.5 1.3125 0 0 Z " fill="#5442F4" transform="translate(77,31)"/>
<path d="M0 0 C-1 3 -1 3 -2.875 4.1875 C-5 5 -5 5 -8 5 C-8.33 4.01 -8.66 3.02 -9 2 C-5.86501708 0.14223235 -3.62528568 -0.20140476 0 0 Z " fill="#7527D4" transform="translate(92,0)"/>
<path d="M0 0 C2.99324263 1.0975223 3.84610901 1.67682892 5.25 4.625 C5.4975 5.40875 5.745 6.1925 6 7 C4.125 6.75 4.125 6.75 2 6 C0.61504198 3.85331506 0 2.56128588 0 0 Z " fill="#9307EC" transform="translate(92,72)"/>
<path d="M0 0 C0 3 0 3 -2 6 C-4 6.8125 -4 6.8125 -6 7 C-6.66 6.34 -7.32 5.68 -8 5 C-4.04 2.525 -4.04 2.525 0 0 Z " fill="#C9A458" transform="translate(175,26)"/>
<path d="M0 0 C0.66 0 1.32 0 2 0 C1.67 2.64 1.34 5.28 1 8 C-0.32 7.67 -1.64 7.34 -3 7 C-2.38722388 4.03824877 -1.74627478 2.61941217 0 0 Z " fill="#7520C3" transform="translate(92,22)"/>
<path d="M0 0 C0.99 0.99 1.98 1.98 3 3 C1.02 5.97 1.02 5.97 -1 9 C-1.66 8.34 -2.32 7.68 -3 7 C-2.01 4.69 -1.02 2.38 0 0 Z " fill="#E400F3" transform="translate(119,12)"/>
<path d="M0 0 C1.32 0 2.64 0 4 0 C4 0.66 4 1.32 4 2 C3.34 2 2.68 2 2 2 C2 2.66 2 3.32 2 4 C0.02 4.99 0.02 4.99 -2 6 C-2.66 5.34 -3.32 4.68 -4 4 C-3.34 4 -2.68 4 -2 4 C-1.34 2.68 -0.68 1.36 0 0 Z " fill="#0091C1" transform="translate(38,58)"/>
<path d="M0 0 C1.32 0.33 2.64 0.66 4 1 C3.01 1.495 3.01 1.495 2 2 C2 2.66 2 3.32 2 4 C1.34 4 0.68 4 0 4 C-0.33 4.99 -0.66 5.98 -1 7 C-1.99 6.67 -2.98 6.34 -4 6 C-3 3 -3 3 0 1 C0 0.67 0 0.34 0 0 Z " fill="#6D2FD8" transform="translate(84,48)"/>
<path d="M0 0 C1 3 1 3 0 6 C-1.62332967 7.38576923 -3.28724465 8.72641268 -5 10 C-4.42415568 7.61435923 -3.77772405 5.33317216 -3 3 C-2.34 3 -1.68 3 -1 3 C-0.67 2.01 -0.34 1.02 0 0 Z " fill="#5025B5" transform="translate(79,35)"/>
<path d="M0 0 C0.99 0.99 1.98 1.98 3 3 C-1.625 7 -1.625 7 -5 7 C-3.70700306 4.11562221 -2.34058637 2.12780579 0 0 Z " fill="#1F6AE7" transform="translate(61,22)"/>
<path d="M0 0 C0.66 0.99 1.32 1.98 2 3 C-0.31 4.65 -2.62 6.3 -5 8 C-5 5 -5 5 -2.5 2.3125 C-1.675 1.549375 -0.85 0.78625 0 0 Z " fill="#2EB0BE" transform="translate(23,60)"/>
<path d="M0 0 C0.66 0.33 1.32 0.66 2 1 C1 4 1 4 -0.875 5.25 C-3 6 -3 6 -6 5 C-5.34 5 -4.68 5 -4 5 C-3.67 4.01 -3.34 3.02 -3 2 C-2.01 1.34 -1.02 0.68 0 0 Z " fill="#DB3A99" transform="translate(141,50)"/>
<path d="M0 0 C0.33 0.99 0.66 1.98 1 3 C-2.22791555 5.1519437 -3.28400809 5.20086443 -7 5 C-7 4.01 -7 3.02 -7 2 C-4.69 1.34 -2.38 0.68 0 0 Z " fill="#7E20E6" transform="translate(91,14)"/>
<path d="M0 0 C-0.3125 1.9375 -0.3125 1.9375 -1 4 C-4 5 -4 5 -7 5 C-7.66 4.67 -8.32 4.34 -9 4 C-2.25 0 -2.25 0 0 0 Z " fill="#C5B550" transform="translate(203,11)"/>
<path d="M0 0 C1.32 0.66 2.64 1.32 4 2 C2 4 2 4 -1.625 4.125 C-2.73875 4.08375 -3.8525 4.0425 -5 4 C-3.35 2.68 -1.7 1.36 0 0 Z " fill="#002E2E" transform="translate(11,90)"/>
<path d="M0 0 C1.37562854 1.28965176 2.70766393 2.62689293 4 4 C4 4.66 4 5.32 4 6 C2.35 6 0.7 6 -1 6 C-1.042721 4.33388095 -1.04063832 2.66617115 -1 1 C-0.67 0.67 -0.34 0.34 0 0 Z " fill="#00E4FA" transform="translate(10,77)"/>
<path d="M0 0 C1.0828125 0.37125 1.0828125 0.37125 2.1875 0.75 C2.1875 1.41 2.1875 2.07 2.1875 2.75 C0.82625 2.7190625 0.82625 2.7190625 -0.5625 2.6875 C-3.23922588 2.7389755 -5.28238052 2.9715017 -7.8125 3.75 C-3.50480769 -0.31153846 -3.50480769 -0.31153846 0 0 Z " fill="#A22B7F" transform="translate(134.8125,52.25)"/>
<path d="M0 0 C1.65 0 3.3 0 5 0 C5.33 0.66 5.66 1.32 6 2 C4.68 2 3.36 2 2 2 C2 3.32 2 4.64 2 6 C0.68 6 -0.64 6 -2 6 C-2 5.01 -2 4.02 -2 3 C-1.34 2.67 -0.68 2.34 0 2 C0 1.34 0 0.68 0 0 Z " fill="#C900FF" transform="translate(105,42)"/>
<path d="M0 0 C1.875 0.1875 1.875 0.1875 4 1 C5.25 3.5625 5.25 3.5625 6 6 C3 6 3 6 1 5 C0.375 2.4375 0.375 2.4375 0 0 Z " fill="#2E63CC" transform="translate(62,22)"/>
<path d="M0 0 C0.66 0 1.32 0 2 0 C3.60725635 3.21451269 3.05748185 6.43612536 3 10 C0.51559898 7.83965128 -0.58789525 6.29683798 -1 3 C-0.67 2.01 -0.34 1.02 0 0 Z " fill="#C71B94" transform="translate(124,2)"/>
<path d="M0 0 C4.875 1.75 4.875 1.75 6 4 C4.35 4.33 2.7 4.66 1 5 C0.34 3.68 -0.32 2.36 -1 1 C-0.67 0.67 -0.34 0.34 0 0 Z " fill="#5A25C4" transform="translate(62,68)"/>
<path d="M0 0 C0.66 0 1.32 0 2 0 C2 1.32 2 2.64 2 4 C0.125 5.0625 0.125 5.0625 -2 6 C-2.66 5.67 -3.32 5.34 -4 5 C-4 4.01 -4 3.02 -4 2 C-2.68 1.67 -1.36 1.34 0 1 C0 0.67 0 0.34 0 0 Z " fill="#275AD2" transform="translate(62,58)"/>
<path d="M0 0 C1.32 0 2.64 0 4 0 C4.33 0.99 4.66 1.98 5 3 C0.25 4 0.25 4 -2 4 C-1.34 2.68 -0.68 1.36 0 0 Z " fill="#12B5BB" transform="translate(26,56)"/>
<path d="M0 0 C2.0625 0.4375 2.0625 0.4375 4 1 C4 1.66 4 2.32 4 3 C2.02 3.66 0.04 4.32 -2 5 C-1.125 1.125 -1.125 1.125 0 0 Z " fill="#6C31D6" transform="translate(71,56)"/>
<path d="M0 0 C0.66 0.33 1.32 0.66 2 1 C2 1.66 2 2.32 2 3 C1.34 3 0.68 3 0 3 C-0.33 3.66 -0.66 4.32 -1 5 C-3.0625 5.625 -3.0625 5.625 -5 6 C-3.63016497 2.83884224 -3.0109362 2.0072908 0 0 Z " fill="#246CB7" transform="translate(57,50)"/>
<path d="M0 0 C0.66 0 1.32 0 2 0 C1.67 0.66 1.34 1.32 1 2 C0.67 1.34 0.34 0.68 0 0 Z M-3 1 C-1.0625 1.75 -1.0625 1.75 1 3 C1.75 5.125 1.75 5.125 2 7 C0.35 6.67 -1.3 6.34 -3 6 C-3.5625 4.0625 -3.5625 4.0625 -4 2 C-3.67 1.67 -3.34 1.34 -3 1 Z " fill="#1879FF" transform="translate(58,27)"/>
<path d="M0 0 C1.65 0.33 3.3 0.66 5 1 C2.87219421 3.34058637 0.88437779 4.70700306 -2 6 C-1.49396008 3.83125748 -1.00016187 2.00032373 0 0 Z " fill="#DBBD0D" transform="translate(186,20)"/>
<path d="M0 0 C0.99 0.33 1.98 0.66 3 1 C3 2.65 3 4.3 3 6 C2.01 6.495 2.01 6.495 1 7 C0.34 6.34 -0.32 5.68 -1 5 C-0.625 2.375 -0.625 2.375 0 0 Z " fill="#9C14FF" transform="translate(93,66)"/>
<path d="M0 0 C0.99 0.33 1.98 0.66 3 1 C2.34 1 1.68 1 1 1 C1 1.66 1 2.32 1 3 C1.66 3.66 2.32 4.32 3 5 C2.34 5 1.68 5 1 5 C0.67 5.66 0.34 6.32 0 7 C-2 3.25 -2 3.25 -2 1 C-1.34 0.67 -0.68 0.34 0 0 Z " fill="#00C6FA" transform="translate(26,59)"/>
<path d="M0 0 C1.98 0 3.96 0 6 0 C6 0.66 6 1.32 6 2 C6.66 2.33 7.32 2.66 8 3 C5.69 3 3.38 3 1 3 C0.67 2.01 0.34 1.02 0 0 Z " fill="#7226DD" transform="translate(77,40)"/>
<path d="M0 0 C0.99 0.33 1.98 0.66 3 1 C-0.465 3.97 -0.465 3.97 -4 7 C-4 6.01 -4 5.02 -4 4 C-2.68 3.34 -1.36 2.68 0 2 C0 1.34 0 0.68 0 0 Z " fill="#7A2EC1" transform="translate(84,32)"/>
<path d="M0 0 C1.32 0.33 2.64 0.66 4 1 C4 1.66 4 2.32 4 3 C2.35 3.66 0.7 4.32 -1 5 C-1.33 4.01 -1.66 3.02 -2 2 C-1.34 2 -0.68 2 0 2 C0 1.34 0 0.68 0 0 Z " fill="#F0BC21" transform="translate(176,26)"/>
<path d="M0 0 C1.65 0.33 3.3 0.66 5 1 C4.01 1.495 4.01 1.495 3 2 C2.67 2.99 2.34 3.98 2 5 C0.68 4.67 -0.64 4.34 -2 4 C-2 3.34 -2 2.68 -2 2 C-1.34 2 -0.68 2 0 2 C0 1.34 0 0.68 0 0 Z " fill="#8212CB" transform="translate(96,18)"/>
<path d="M0 0 C1.32 0.66 2.64 1.32 4 2 C2.35 3.32 0.7 4.64 -1 6 C-1.66 5.01 -2.32 4.02 -3 3 C-2.01 2.01 -1.02 1.02 0 0 Z " fill="#444EF5" transform="translate(73,18)"/>
<path d="M0 0 C2.31 0 4.62 0 7 0 C5.75 1.5 5.75 1.5 4 3 C2.68 3 1.36 3 0 3 C0 2.01 0 1.02 0 0 Z " fill="#00E0F5" transform="translate(2,91)"/>
<path d="M0 0 C0.66 0.66 1.32 1.32 2 2 C1.67 2.99 1.34 3.98 1 5 C1.66 5 2.32 5 3 5 C3 5.66 3 6.32 3 7 C3.66 7.33 4.32 7.66 5 8 C2.13275314 7.42655063 1.1385485 7.1385485 -1 5 C-0.625 2.375 -0.625 2.375 0 0 Z " fill="#009CFF" transform="translate(45,70)"/>
<path d="M0 0 C0.66 0.33 1.32 0.66 2 1 C1.01 2.485 1.01 2.485 0 4 C-0.66 4 -1.32 4 -2 4 C-2.33 4.66 -2.66 5.32 -3 6 C-3.66 5.01 -4.32 4.02 -5 3 C-2.625 1.4375 -2.625 1.4375 0 0 Z " fill="#7813D7" transform="translate(94,40)"/>
<path d="M0 0 C1.32 0.66 2.64 1.32 4 2 C3.67 2.99 3.34 3.98 3 5 C2.01 5.33 1.02 5.66 0 6 C-1 3 -1 3 0 0 Z " fill="#9021EB" transform="translate(89,37)"/>
<path d="M0 0 C0.99 0.66 1.98 1.32 3 2 C3 2.99 3 3.98 3 5 C1.35 4.67 -0.3 4.34 -2 4 C-1.34 2.68 -0.68 1.36 0 0 Z " fill="#3D54D2" transform="translate(69,21)"/>
<path d="M0 0 C0.66 0.66 1.32 1.32 2 2 C1.625 4.625 1.625 4.625 1 7 C0.67 6.01 0.34 5.02 0 4 C-0.99 4 -1.98 4 -3 4 C-3.33 4.66 -3.66 5.32 -4 6 C-4 5.01 -4 4.02 -4 3 C-3.01 3 -2.02 3 -1 3 C-0.67 2.01 -0.34 1.02 0 0 Z " fill="#E400FF" transform="translate(115,10)"/>
<path d="M0 0 C0.598125 0.20625 1.19625 0.4125 1.8125 0.625 C-2.9375 4.625 -2.9375 4.625 -5.1875 4.625 C-5.1875 3.635 -5.1875 2.645 -5.1875 1.625 C-2.1875 -0.375 -2.1875 -0.375 0 0 Z " fill="#5D39A0" transform="translate(85.1875,0.375)"/>
</svg>
