<svg xmlns="http://www.w3.org/2000/svg" width="271" height="30" viewBox="0 0 271 30" fill="none"><path d="M32.6838 21.1479C32.6838 23.0227 35.2268 21.0654 46.2062 14.4211C54.8463 9.19407 61.7584 5.15196 64.3089 3.6671C64.3919 3.62211 64.4825 3.59961 64.573 3.59961C64.6636 3.59961 64.7541 3.63711 64.8296 3.6971C64.9051 3.75709 64.9579 3.83209 64.9805 3.92208C65.0107 4.01207 65.0107 4.10206 64.9805 4.19205C64.9503 4.28954 64.8824 4.37953 64.7919 4.43203C62.762 5.63941 38.6678 21.5379 36.004 22.7303C33.212 23.9751 32.216 23.6902 32.216 23.6902C32.216 23.6902 31.7255 22.5878 31.7406 22.3928C31.7557 22.1978 32.6914 21.1404 32.6914 21.1404L32.6838 21.1479Z" fill="url(#paint0_linear_2006_239)"></path><path d="M51.2624 11.3756C49.6627 12.3355 47.9724 13.3479 46.2066 14.4203C35.2273 21.0646 32.6843 23.0145 32.6843 21.1471C32.6843 21.1471 31.741 22.197 31.7259 22.3995C31.7108 22.5945 32.2013 23.7044 32.2013 23.7044C32.2013 23.7044 33.2427 24.0869 35.9894 22.7445C38.2758 21.6346 48.0252 15.2752 53.5564 10.7231L51.2624 11.3831V11.3756Z" fill="url(#paint1_linear_2006_239)"></path><path d="M31.5369 5.27129C28.7298 8.38349 25.9529 11.3232 23.8023 13.543C30.2616 4.50636 31.4388 2.0316 29.7711 0.629234C28.926 -0.0831978 27.2961 -0.720636 24.24 1.86661C21.4102 4.26638 8.83867 17.5176 2.40196 24.7544C-0.125931 27.6041 -0.329672 28.8865 0.304189 29.5315C1.24743 30.4839 2.57552 30.0339 4.71103 27.7241C11.276 20.6148 25.5982 5.22629 25.5982 5.22629C25.5982 5.22629 20.1425 12.6731 16.0828 18.6125C12.0985 24.4319 11.842 27.4841 15.298 27.4017C19.4256 27.2967 35.9588 6.05121 35.9588 6.05121C35.9588 6.05121 34.261 9.51588 31.4614 15.4403C29.741 19.0775 28.5562 22.1897 28.8204 23.8695C29.1373 25.8643 31.22 25.5043 36.0418 22.7296C36.0418 22.7296 33.2498 24.0795 32.5103 22.8121C31.7331 21.4772 38.2528 9.18591 40.2223 4.28138C41.3542 1.45415 39.8375 -0.48066 37.4152 0.35926C35.6344 0.966701 33.9742 2.57905 31.5444 5.27129H31.5369Z" fill="url(#paint2_linear_2006_239)"></path><path opacity="0.3" d="M35.9592 6.03641L38.2154 2.9917L34.1406 9.80104L35.9592 6.03641Z" fill="black"></path><path opacity="0.3" d="M21.8551 10.4005C21.7042 10.7305 28.322 1.79883 28.322 1.79883L25.5979 5.2185C25.5979 5.2185 23.983 7.42329 21.8626 10.393L21.8551 10.4005Z" fill="black"></path><path d="M67.9389 1.8141C67.4861 1.16916 65.1469 2.70651 65.5393 3.44144C65.9317 4.17637 68.5124 2.63152 67.9389 1.8141Z" fill="#F5D511"></path><path d="M30.8203 6.05844L30.4958 6.4184C30.4204 6.5009 30.3449 6.58339 30.2619 6.66588L29.9752 6.98085L29.7111 7.26582L29.4545 7.5433L29.1904 7.82827L28.9414 8.09074L28.6471 8.41321C28.5792 8.48821 28.5113 8.5632 28.4434 8.63819L28.0962 9.00566L27.9453 9.17064L27.5756 9.5681L27.4624 9.69559L27.0624 10.1155C27.0624 10.1155 27.0021 10.1755 26.9794 10.2055L26.572 10.633C26.572 10.633 26.5267 10.6855 26.504 10.708L26.0739 11.1654L26.0437 11.1954L25.6061 11.6679H25.5985L25.1533 12.1404C24.7156 12.6053 24.2931 13.0403 23.8856 13.4527V13.4677C20.6786 18.7772 15.0719 25.7365 16.9961 26.689C20.8446 24.2292 28.0434 15.8 32.3823 10.5055L31.8541 6.87586C31.8541 6.87586 31.8768 5.75097 31.7409 5.06104L31.5523 5.26352C31.3787 5.4585 31.2052 5.64598 31.0316 5.84096L30.8354 6.05094L30.8203 6.05844Z" fill="url(#paint3_linear_2006_239)"></path><path d="M97.1937 24.2422L97.1751 11.9888L91.0537 22.128H89.5094L83.3942 12.149V24.2422H80.0947V5.75732H82.9415L90.3343 18.0107L97.5969 5.75732H100.444L100.468 24.2422H97.1937Z" fill="white"></path><path d="M122.889 19.9646H113.579L111.75 24.2422H108.184L116.563 5.75732H119.967L128.371 24.2422H124.755L122.895 19.9646H122.889ZM121.747 17.2711L118.231 9.19049L114.764 17.2711H121.747Z" fill="white"></path><path d="M152.596 5.75732V24.2422H149.136V16.3218H139.51V24.2422H136.056V5.75732H139.51V13.3879H149.136V5.75732H152.596Z" fill="white"></path><path d="M189.988 5.75732L183.817 24.2422H180.146L175.556 10.565L170.874 24.2422H167.171L161 5.75732H164.591L169.218 19.8043L174.03 5.75732H177.218L181.926 19.8844L186.689 5.75732H189.988Z" fill="white"></path><path d="M209.618 19.9646H200.309L198.473 24.2422H194.913L203.286 5.75732H206.691L215.094 24.2422H211.479L209.618 19.9646ZM208.465 17.2711L204.948 9.19049L201.462 17.2711H208.465Z" fill="white"></path><path d="M229.7 17.721V24.2422H226.246V17.7703L218.934 5.75732H222.63L228.082 14.7624L233.595 5.75732H237L229.707 17.721H229.7Z" fill="white"></path><defs><linearGradient id="paint0_linear_2006_239" x1="-1.44654" y1="13.6636" x2="62.3998" y2="13.6636" gradientUnits="userSpaceOnUse"><stop stop-color="#04EAF7"></stop><stop offset="0.32" stop-color="#4269E9"></stop><stop offset="0.59" stop-color="#EB00FC"></stop><stop offset="0.6" stop-color="#EB08F3"></stop><stop offset="0.66" stop-color="#EE3EB8"></stop><stop offset="0.72" stop-color="#F06C85"></stop><stop offset="0.78" stop-color="#F2925B"></stop><stop offset="0.84" stop-color="#F3AF3B"></stop><stop offset="0.9" stop-color="#F4C424"></stop><stop offset="0.95" stop-color="#F5D116"></stop><stop offset="1" stop-color="#F5D511"></stop></linearGradient><linearGradient id="paint1_linear_2006_239" x1="51.436" y1="12.9804" x2="30.3116" y2="24.1574" gradientUnits="userSpaceOnUse"><stop offset="0.03" stop-color="#EA00FB" stop-opacity="0"></stop><stop offset="0.34" stop-color="#A500CF" stop-opacity="0.3"></stop><stop offset="0.61" stop-color="#7300AF" stop-opacity="0.52"></stop><stop offset="0.84" stop-color="#54009B" stop-opacity="0.65"></stop><stop offset="1" stop-color="#490094" stop-opacity="0.7"></stop></linearGradient><linearGradient id="paint2_linear_2006_239" x1="-1.44647" y1="14.9979" x2="62.3999" y2="14.9979" gradientUnits="userSpaceOnUse"><stop offset="0.09" stop-color="#04EAF7"></stop><stop offset="0.13" stop-color="#09E0F6"></stop><stop offset="0.19" stop-color="#15C7F3"></stop><stop offset="0.27" stop-color="#299CEF"></stop><stop offset="0.36" stop-color="#4269E9"></stop><stop offset="0.59" stop-color="#EB00FC"></stop><stop offset="0.6" stop-color="#EB08F3"></stop><stop offset="0.66" stop-color="#EE3EB8"></stop><stop offset="0.72" stop-color="#F06C85"></stop><stop offset="0.78" stop-color="#F2925B"></stop><stop offset="0.84" stop-color="#F3AF3B"></stop><stop offset="0.9" stop-color="#F4C424"></stop><stop offset="0.95" stop-color="#F5D116"></stop><stop offset="1" stop-color="#F5D511"></stop></linearGradient><linearGradient id="paint3_linear_2006_239" x1="25.2816" y1="16.25" x2="21.0181" y2="14.5067" gradientUnits="userSpaceOnUse"><stop offset="0.03" stop-color="#EB00FC" stop-opacity="0"></stop><stop offset="0.24" stop-color="#BA00DC" stop-opacity="0.3"></stop><stop offset="0.48" stop-color="#8900BD" stop-opacity="0.6"></stop><stop offset="0.69" stop-color="#6600A7" stop-opacity="0.82"></stop><stop offset="0.87" stop-color="#510099" stop-opacity="0.95"></stop><stop offset="0.99" stop-color="#490094"></stop></linearGradient></defs></svg>