<svg width="117" height="30" viewBox="0 0 117 30" fill="none" xmlns="http://www.w3.org/2000/svg"><path d="M16.4 20.001l-3.131-4.81c-.138-.22-.4-.3-.501-.329-.095-.014-.19-.022-.284-.036-4.83.875-7.59 5.591-7.59 5.591.116-.066.24-.139.377-.204.044-.022.087-.044.124-.066a.79.79 0 00.08-.044c.058-.029.123-.058.181-.087.037-.015.066-.03.102-.044a11.521 11.521 0 014.613-.942c2.135 0 4.104.555 5.695 1.497 0 0 .225.116.385-.037.16-.146.087-.277-.051-.489z" fill="#D8E3FF"/><path d="M11.127 0a.532.532 0 00-.443.24L.085 16.557a.524.524 0 00-.007.562l2.666 4.365a.545.545 0 00.443.256h.007a.532.532 0 00.444-.241L11.14 9.957V0h-.014z" fill="#0971CE"/><path d="M11.127 0c.174 0 .341.088.443.24l10.606 16.323a.524.524 0 01.007.562l-2.666 4.365a.545.545 0 01-.443.256h-.008a.532.532 0 01-.443-.241L11.127 9.957V0zm28.606 16.819h-8.6l-1.693 4h-3.291L33.885 3.54h3.146l7.758 17.279h-3.342l-1.714-4zm-1.06-2.519l-3.24-7.555-3.218 7.555h6.457zm15.77 5.796c-.734.591-1.846.89-2.95.89-2.876 0-4.518-1.532-4.518-4.445v-6.343H44.81V7.73h2.165V2.496h3.073V7.73h3.515v2.468h-3.515v6.27c0 1.285.639 1.971 1.816 1.971.639 0 1.25-.175 1.721-.54l.857 2.197zm15.45-6.832v7.555H66.82v-7.161c0-2.343-1.155-3.482-3.116-3.482-2.186 0-3.661 1.336-3.661 3.97v6.665H56.97V2.505h3.073v6.664c1.01-1.087 2.557-1.678 4.373-1.678 3.145 0 5.477 1.795 5.477 5.774zm16.308 1.949H75.908c.37 1.927 1.96 3.16 4.25 3.16 1.474 0 2.629-.467 3.558-1.43l1.65 1.898c-1.177 1.408-3.022 2.146-5.281 2.146-4.395 0-7.243-2.84-7.243-6.76 0-3.927 2.877-6.737 6.778-6.737 3.828 0 6.632 2.693 6.632 6.81 0 .248-.03.613-.051.913zM75.886 13.16h7.446c-.247-1.897-1.693-3.211-3.712-3.211-1.99.007-3.444 1.292-3.734 3.211zm26.23.103v7.555h-3.072v-7.161c0-2.343-1.155-3.482-3.117-3.482-2.186 0-3.66 1.336-3.66 3.97v6.665h-3.073V7.636h2.92v1.7c1.01-1.211 2.6-1.854 4.518-1.854 3.153.008 5.484 1.803 5.484 5.782zM117 13.088v7.723h-2.898v-1.605c-.734 1.138-2.165 1.773-4.126 1.773-3 0-4.889-1.657-4.889-3.949 0-2.197 1.475-3.927 5.456-3.927h3.392v-.197c0-1.803-1.082-2.862-3.269-2.862-1.475 0-3 .497-3.981 1.307l-1.205-2.234c1.402-1.087 3.435-1.627 5.549-1.627 3.785 0 5.971 1.795 5.971 5.598zm-3.072 3.606v-1.532h-3.167c-2.085 0-2.652.788-2.652 1.751 0 1.11.93 1.825 2.506 1.825 1.497 0 2.797-.686 3.313-2.044z" fill="#012E5A"/><path d="M89.193 28.841l.175-.365c.247.22.66.38 1.082.38.567 0 .814-.22.814-.511 0-.803-1.99-.3-1.99-1.526 0-.51.391-.941 1.256-.941.385 0 .784.102 1.053.291l-.152.38a1.697 1.697 0 00-.901-.27c-.56 0-.8.234-.8.526 0 .803 1.991.299 1.991 1.51 0 .504-.407.935-1.271.935-.501 0-.995-.168-1.257-.409zm8.122-.452H95.57l-.363.825h-.487l1.49-3.3h.464l1.49 3.3h-.495l-.355-.825zm-.168-.373l-.711-1.62-.705 1.62h1.416zm4.228-.226v-1.876h.472v1.854c0 .73.334 1.059.923 1.059.588 0 .93-.329.93-1.059v-1.854h.457v1.876c0 .956-.523 1.46-1.387 1.46-.872 0-1.395-.504-1.395-1.46zm1.678-2.76h.574l-.785.614h-.421l.632-.613zm4.874.884h1.38c1.054 0 1.773.672 1.773 1.65 0 .978-.719 1.65-1.773 1.65h-1.38v-3.3zm1.351 2.89c.814 0 1.33-.496 1.33-1.24 0-.738-.523-1.241-1.33-1.241h-.886v2.482h.886zm7.722 0v.41h-2.382v-3.3h2.317v.409h-1.845v1.014h1.649v.402h-1.649v1.066H117z" fill="#0971CE"/></svg>