<svg xmlns="http://www.w3.org/2000/svg" viewBox="0 0 360 80" role="img" aria-label="Banco Santander">
  <!-- Flame/ember icon (Santander's distinctive mark) -->
  <g transform="translate(0, 12)">
    <path d="M28 4 C 34 10, 38 18, 38 28 C 38 36, 32 42, 24 42 C 22 42, 20 41, 18 39 C 22 38, 26 34, 26 28 C 26 22, 22 18, 18 16 C 16 15, 14 15, 13 16 C 16 10, 22 4, 28 4 Z"
          fill="#EC0000"/>
    <path d="M18 24 C 24 30, 24 38, 18 44 C 14 48, 8 50, 4 48 C 8 48, 14 44, 14 36 C 14 30, 10 26, 6 24 C 8 22, 12 22, 18 24 Z"
          fill="#EC0000"/>
  </g>
  <!-- Wordmark -->
  <text x="58" y="50" font-family="Inter Tight, system-ui, sans-serif"
        font-size="34" font-weight="700" fill="#EC0000" letter-spacing="-0.02em">Santander</text>
</svg>
